<svg width="130" height="130" viewBox="0 0 130 130" fill="none" xmlns="http://www.w3.org/2000/svg">
<path fill-rule="evenodd" clip-rule="evenodd" d="M34.5824 113.75C32.5015 113.75 30.7311 113.02 29.2713 111.562C27.8125 110.102 27.083 108.331 27.083 106.25V45.4159C27.083 43.335 27.8125 41.5646 29.2713 40.1048C30.7311 38.6459 32.5015 37.9165 34.5824 37.9165H46.667H79.167H95.417C97.4979 37.9165 99.2682 38.6459 100.728 40.1048C102.187 41.5646 102.916 43.335 102.916 45.4159V106.25C102.916 108.331 102.187 110.102 100.728 111.562C99.2682 113.02 97.4979 113.75 95.417 113.75H34.5824ZM82.7555 57.7537C82.37 58.1401 81.8685 58.3333 81.251 58.3333C80.6345 58.3333 80.133 58.1401 79.7466 57.7537C79.3602 57.3673 79.167 56.8658 79.167 56.2492V42.0833H83.3324V56.2492C83.3324 56.8658 83.1401 57.3673 82.7555 57.7537ZM50.2555 57.7537C49.87 58.1401 49.3685 58.3333 48.751 58.3333C48.1344 58.3333 47.6329 58.1401 47.2466 57.7537C46.8602 57.3673 46.667 56.8658 46.667 56.2492V42.0833H50.8324V56.2492C50.8324 56.8658 50.6401 57.3673 50.2555 57.7537Z" fill="#E60012"/>
<path d="M46.583 34.5827V37.9167H50.7484V34.5827C50.7484 30.5969 52.1134 27.2395 54.8434 24.5104C57.5725 21.7813 60.93 20.4168 64.9157 20.4168C68.9015 20.4168 72.2589 21.7813 74.988 24.5104C77.718 27.2395 79.083 30.5969 79.083 34.5827V37.9167H83.2484V34.5827C83.2484 29.4513 81.4763 25.113 77.932 21.5678C74.3868 18.0226 70.048 16.25 64.9157 16.25C59.7834 16.25 55.4447 18.0226 51.8995 21.5678C48.3552 25.113 46.583 29.4513 46.583 34.5827Z" fill="#9D9B9B"/>
</svg>
