<svg width="120" height="120" viewBox="0 0 120 120" fill="none" xmlns="http://www.w3.org/2000/svg">
<path d="M97.5078 60.3584C101.759 60.3584 105.385 61.8612 108.385 64.8652C111.385 67.8686 112.885 71.495 112.885 75.7441C112.885 78.1665 112.364 80.4674 111.321 82.6465C110.279 84.8263 109 86.8716 107.484 88.7822C105.684 91.2239 103.94 93.7026 102.255 96.2168C100.57 98.7308 99.2706 101.452 98.3564 104.379C98.3198 104.55 98.2128 104.696 98.0361 104.817C97.8603 104.939 97.6816 105 97.5 105C97.3184 105 97.1396 104.939 96.9639 104.817C96.7873 104.696 96.6802 104.55 96.6436 104.379C95.7019 101.445 94.4156 98.7169 92.7832 96.1953C91.1507 93.6745 89.3949 91.2031 87.5166 88.7822C86.0233 86.8715 84.7494 84.8326 83.6953 82.666C82.6421 80.4994 82.1152 78.1776 82.1152 75.7002C82.1152 71.4728 83.6183 67.8593 86.624 64.8594C89.629 61.8594 93.257 60.3584 97.5078 60.3584ZM97.5 69C93.9101 69 91 71.9101 91 75.5C91 79.0899 93.9101 82 97.5 82C101.09 82 104 79.0899 104 75.5C104 71.9101 101.09 69 97.5 69Z" fill="#9D9B9B"/>
<path d="M60 105C53.775 105 47.925 103.819 42.45 101.458C36.975 99.0958 32.2125 95.8908 28.1625 91.8425C24.1125 87.7942 20.9063 83.0333 18.5438 77.56C16.1813 72.0875 15 66.2396 15 60.0163C15 53.7938 16.1813 47.9433 18.5438 42.465C20.9063 36.9875 24.1125 32.2225 28.1625 28.17C32.2125 24.1175 36.975 20.9096 42.45 18.5462C47.925 16.1821 53.775 15 60 15C70.7867 15 80.24 18.3504 88.36 25.0512C96.4808 31.7521 101.639 40.1579 103.834 50.2688C103.099 50.0171 102.351 49.8204 101.591 49.6787C100.832 49.5371 100.088 49.42 99.3587 49.3275C97.7412 43.15 94.8508 37.6467 90.6875 32.8175C86.5242 27.9883 81.3825 24.3546 75.2625 21.9163V24.2113C75.2625 27.0296 74.2804 29.4446 72.3163 31.4563C70.3513 33.4679 67.9596 34.4737 65.1413 34.4737H54.8787V44.7375C54.8787 46.1542 54.3758 47.3383 53.37 48.29C52.365 49.2417 51.1542 49.7175 49.7375 49.7175H39.615V60H70.2825C71.2183 60 72.0408 60.2483 72.75 60.745C73.4592 61.2417 74.035 61.8854 74.4775 62.6763C73.3417 64.6304 72.4717 66.7188 71.8675 68.9412C71.2633 71.1646 70.9613 73.4321 70.9613 75.7438C70.9613 80.2071 72.1596 84.4408 74.5563 88.445C76.9529 92.45 79.3092 96.1479 81.625 99.5387C78.3708 101.325 74.9487 102.681 71.3587 103.609C67.7687 104.536 63.9825 105 60 105ZM54.8787 100.539V90.6475C52.0604 90.6475 49.6688 89.6417 47.7038 87.63C45.7388 85.6183 44.7562 83.2033 44.7562 80.385V75.2438L20.25 50.7375C19.9742 52.2633 19.7354 53.7962 19.5338 55.3363C19.3321 56.8771 19.2313 58.4317 19.2313 60C19.2313 70.3267 22.6075 79.3525 29.36 87.0775C36.1133 94.8017 44.6196 99.2887 54.8787 100.539Z" fill="#E60012"/>
</svg>
