<svg width="132" height="132" viewBox="0 0 132 132" fill="none" xmlns="http://www.w3.org/2000/svg">
<path d="M65.706 110C62.5714 110 59.5304 109.67 56.5829 109.01C53.6346 108.349 50.9661 107.505 48.5776 106.478C45.145 105.01 42.3571 103.217 40.2137 101.099C38.0712 98.9804 37 96.6208 37 94.0202V68.2676C37 65.9641 37.87 63.8443 39.61 61.908C41.3491 59.9727 43.5883 58.2604 46.3275 56.7712C49.1405 55.282 52.2588 54.1394 55.6826 53.3436C59.1063 52.5477 62.5455 52.1497 66 52.1497C69.4545 52.1497 72.8937 52.5477 76.3174 53.3436C79.7412 54.1394 82.8595 55.2811 85.6725 56.7686C88.4855 58.256 90.7436 59.967 92.4467 61.9015C94.1489 63.8351 95 65.9549 95 68.261V94.0346C95 95.2995 94.7236 96.5253 94.1709 97.7121C93.6181 98.8989 92.8254 100.011 91.7929 101.049C90.7603 102.088 89.5326 103.071 88.1099 103.998C86.6871 104.925 85.1338 105.759 83.4501 106.501C83.538 106.129 83.6698 105.087 83.8455 103.376C83.8455 99.0602 82.3169 95.377 79.2596 92.3267C76.2023 89.2756 72.5259 87.75 68.2304 87.75C65.0122 87.75 62.168 88.5893 59.6978 90.2678C57.2275 91.9472 55.3803 94.1284 54.1561 96.8114C56.4955 97.5127 58.6568 97.961 60.6403 98.1565C62.6228 98.3528 64.3624 98.451 65.859 98.451C67.1314 98.451 68.1605 98.4072 68.9461 98.3195C69.7318 98.2318 70.2371 98.188 70.462 98.188V109.737C69.6298 109.892 68.82 109.975 68.0326 109.986C67.2452 109.995 66.4697 110 65.706 110ZM79.3558 85.5254C81.8015 85.5254 83.9049 84.6568 85.666 82.9195C87.427 81.1822 88.3076 79.0935 88.3076 76.6533C88.3076 74.2139 87.4297 72.116 85.6739 70.3594C83.918 68.6029 81.8072 67.7246 79.3413 67.7246C76.8754 67.7246 74.7791 68.6002 73.0523 70.3515C71.3255 72.1028 70.462 74.2082 70.462 76.6677C70.462 79.1272 71.3329 81.2182 73.0747 82.9405C74.8164 84.6638 76.9101 85.5254 79.3558 85.5254ZM66 47.7005C69.7182 47.7005 72.8783 46.4077 75.4804 43.8219C78.0833 41.2362 79.3848 38.0654 79.3848 34.3095C79.3848 30.6281 78.082 27.4893 75.4764 24.8931C72.8708 22.2977 69.7072 21 65.9855 21C62.1891 21 59.0119 22.2977 56.4537 24.8931C53.8947 27.4893 52.6152 30.6417 52.6152 34.3503C52.6152 38.079 53.8978 41.2362 56.463 43.8219C59.029 46.4077 62.208 47.7005 66 47.7005Z" fill="#E60012"/>
</svg>
