<svg width="160" height="160" viewBox="0 0 160 160" fill="none" xmlns="http://www.w3.org/2000/svg">
<path d="M125 94.8333L110 57.1667L91.167 76.1667L94.167 91.1667L92.5003 92.5L83.5003 76.5L67.5003 67.5L69.0003 66L84.0003 69L103 50.1667L65.167 35L68.0003 32.3333L113.667 39.6667L129.667 23.5C130.111 22.9444 130.611 22.5556 131.167 22.3333C131.723 22.1111 132.389 22 133.167 22C133.723 22 134.334 22.1389 135 22.4167C135.667 22.6944 136.223 23.0556 136.667 23.5C137.111 23.9444 137.445 24.4722 137.667 25.0833C137.889 25.6944 138 26.2778 138 26.8333C138 27.5 137.889 28.1389 137.667 28.75C137.445 29.3611 137.056 29.9444 136.5 30.5L120.5 46.6667L127.667 92.1667L125 94.8333Z" fill="#EA3323"/>
<path d="M62.6667 138L60.3333 135.333L82.8333 112.667L85.6667 115.167L62.6667 138ZM94.6667 138L92 135.333L111.5 115.833L114 118.5L94.6667 138ZM24.6667 68.3332L22 65.8332L41.6667 46.1665L44.3333 48.6665L24.6667 68.3332ZM24.6667 99.9998L22 97.4998L44.8333 74.6665L47.5 77.1665L24.6667 99.9998Z" fill="#9D9B9B"/>
</svg>
