<svg width="138" height="138" viewBox="0 0 138 138" fill="none" xmlns="http://www.w3.org/2000/svg">
<path d="M32.4049 83.2228C29.7408 83.2228 27.455 82.2662 25.5473 80.3531C23.6397 78.44 22.6859 76.1404 22.6859 73.4544C22.6859 70.6715 23.6425 68.3478 25.5556 66.483C27.4687 64.6183 29.7683 63.6859 32.4543 63.6859C35.1063 63.6859 37.3762 64.6183 39.264 66.483C41.153 68.3478 42.0974 70.6506 42.0974 73.3917C42.0974 76.1316 41.148 78.4554 39.2492 80.363C37.3515 82.2695 35.07 83.2228 32.4049 83.2228ZM106.241 83.2228C103.576 83.2228 101.29 82.2662 99.382 80.3531C97.4755 78.44 96.5222 76.1404 96.5222 73.4544C96.5222 70.6715 97.4782 68.3478 99.3902 66.483C101.303 64.6183 103.603 63.6859 106.291 63.6859C108.942 63.6859 111.211 64.6183 113.099 66.483C114.988 68.3478 115.932 70.6506 115.932 73.3917C115.932 76.1316 114.983 78.4554 113.085 80.363C111.188 82.2695 108.906 83.2228 106.241 83.2228ZM69.5622 76.8798C66.002 76.8798 62.9658 75.6292 60.4534 73.1278C57.9422 70.6254 56.6866 67.5627 56.6866 63.9399C56.6866 60.2522 57.9372 57.1736 60.4386 54.7042C62.9399 52.2347 66.0026 51 69.6265 51C73.1449 51 76.1811 52.2347 78.7352 54.7042C81.2893 57.1736 82.5664 60.2308 82.5664 63.8756C82.5664 67.5215 81.2893 70.6001 78.7352 73.1113C76.1811 75.6236 73.1234 76.8798 69.5622 76.8798ZM41.4872 113.29C42.9418 106.803 46.259 101.439 51.4387 97.1968C56.6173 92.956 62.6749 90.8356 69.6116 90.8356C76.5483 90.8356 82.59 92.956 87.7367 97.1968C92.8823 101.439 96.1825 106.803 97.6371 113.29H41.4872ZM10 113.29C10 107.048 12.1819 101.745 16.5458 97.3815C20.9097 93.0176 26.2125 90.8356 32.4543 90.8356C34.3477 90.8356 36.1294 91.0429 37.7995 91.4574C39.4696 91.8708 41.0837 92.492 42.6417 93.3211C40.0326 95.9675 37.8578 99.0016 36.1173 102.423C34.3779 105.845 33.1448 109.467 32.4181 113.29H10ZM106.645 113.29C105.96 109.382 104.751 105.727 103.017 102.323C101.283 98.9186 99.0631 95.8757 96.3573 93.1941C97.8966 92.4497 99.4771 91.8708 101.099 91.4574C102.721 91.0429 104.451 90.8356 106.291 90.8356C112.532 90.8356 117.835 93.0176 122.199 97.3815C126.563 101.745 128.745 107.048 128.745 113.29H106.645Z" fill="#E60012"/>
</svg>
