<svg width="112" height="112" viewBox="0 0 112 112" fill="none" xmlns="http://www.w3.org/2000/svg">
<path d="M39.8984 20.083C41.1282 20.083 42.2553 20.3136 43.291 20.7666C44.3532 21.2313 45.2912 21.86 46.1104 22.6533L63.6641 39.6562C64.0891 40.068 64.4297 40.5691 64.6826 41.1729C64.9554 41.8249 65.0586 42.315 65.0586 42.667C65.0586 43.6964 64.7594 44.4673 64.2129 45.0615C63.7109 45.6073 62.945 45.9453 61.7549 45.9453C61.2203 45.9453 60.626 45.8304 59.9648 45.5742C59.3514 45.3366 58.8408 44.9855 58.4199 44.5195L58.3984 44.4951L58.374 44.4717L49.7676 36.1348L49.0713 35.4609L48.376 36.1348L23.0234 60.6904L17.6045 55.4414C16.4344 54.308 15.5523 52.9384 14.96 51.3184C14.3522 49.656 14.0586 48.0905 14.0586 46.6162C14.0586 45.0393 14.3066 43.6479 14.7832 42.4277C15.2724 41.1754 15.8814 40.2283 16.5859 39.5459L34.0254 22.6533C34.8605 21.8444 35.7557 21.2132 36.71 20.751C37.6112 20.3145 38.6668 20.083 39.8984 20.083Z" stroke="#9D9B9B" stroke-width="2"/>
<path d="M54.8128 94.083C53.7726 94.083 52.8438 93.7415 52.0265 93.0584C51.2092 92.376 50.8006 91.4146 50.8006 90.1742C50.8006 89.5727 50.9306 88.8973 51.1907 88.1481C51.4507 87.3988 51.8408 86.8036 52.3609 86.3624L67.5181 71.3624L65.512 69.3771L50.3548 84.3771C49.8347 84.8918 49.2403 85.2779 48.5716 85.5352C47.9029 85.7926 47.2342 85.9212 46.5655 85.9212C45.451 85.9212 44.5036 85.5352 43.7235 84.7632C42.9433 83.9911 42.5533 83.0536 42.5533 81.9507C42.5533 81.2889 42.7019 80.6087 42.9991 79.9102C43.2963 79.2117 43.6678 78.6418 44.1136 78.2007L59.2708 63.2007L57.2647 61.2154L42.1075 76.2154C41.6616 76.6565 41.0858 77.0242 40.38 77.3183C39.6741 77.6124 38.9868 77.7595 38.3181 77.7595C37.2036 77.7595 36.2563 77.3735 35.4762 76.6014C34.696 75.8293 34.3059 74.8918 34.3059 73.7889C34.3059 73.1271 34.4359 72.4654 34.696 71.8036C34.956 71.1418 35.3461 70.5536 35.8662 70.0389L49.6861 56.3624L47.68 54.3771L33.8601 68.0536C33.4143 68.4948 32.8385 68.8624 32.1326 69.1565C31.4268 69.4507 30.7395 69.5977 30.0708 69.5977C28.882 69.5977 27.9161 69.2223 27.1731 68.4716C26.4301 67.7209 26.0586 66.7977 26.0586 65.7021C26.0586 65.0639 26.2072 64.3955 26.5044 63.697C26.8016 62.9984 27.1731 62.4286 27.6189 61.9874L48.7945 41.0315L55.4815 47.5389C56.2988 48.3477 57.1904 48.9176 58.1563 49.2484C59.1222 49.5793 60.1996 49.7448 61.3884 49.7448C63.4688 49.7448 65.1591 49.1014 66.4594 47.8146C67.7596 46.5279 68.4097 44.8551 68.4097 42.7962C68.4097 41.7308 68.1868 40.719 67.741 39.7609C67.2952 38.8036 66.6637 37.9036 65.8464 37.0609L56.4845 27.7962L62.3914 21.9507C63.283 21.0683 64.3975 20.3698 65.7349 19.8551C67.0723 19.3404 68.4097 19.083 69.7471 19.083C71.0845 19.083 72.422 19.3404 73.7594 19.8551C75.0968 20.3698 76.2113 21.0683 77.1029 21.9507L96.2723 40.9212C97.0896 41.7301 97.7583 42.7595 98.2785 44.0095C98.7985 45.2595 99.0586 46.6198 99.0586 48.0904C99.0586 49.5609 98.7985 50.9212 98.2785 52.1712C97.7583 53.4212 97.0896 54.4507 96.2723 55.2595L58.6021 92.5389C58.1563 92.9801 57.5805 93.3477 56.8746 93.6418C56.1688 93.9359 55.4815 94.083 54.8128 94.083Z" fill="#EA3323"/>
</svg>
