<svg width="1440" height="742" fill="none" xmlns="http://www.w3.org/2000/svg"><mask id="a" style="mask-type:luminance" maskUnits="userSpaceOnUse" x="-108" y="-54" width="1637" height="796"><path d="M1425.68-53.3L-107.954 314.373l102.38 427.046L1528.06 373.745 1425.68-53.3z" fill="#fff"/></mask><g mask="url(#a)" stroke="#C4A552"><path d="M141.099 521.301c235.665-63.519 465.488-57.107 704.169-106.416 165.132-34.112 331.952-89.797 451.042-150.554 87.83-44.812 141.83-90.21 175.57-132.998-.1 5.952-.8 11.992-2.11 18.085-36.17 159.563-478.292 318.455-958.214 405.498C222.264 603.172-3.557 737.403-90.518 786.956c-14.077-58.292-23.141-113.143-35.203-146.836 69.335-44.709 148.642-86.954 266.818-118.818l.002-.001z"/><path d="M241.543 317.103c173.039-28.566 314.025-11.503 453.906-18.509 163.262-8.187 390.111-40.62 603.781-109.527 69.87-22.535 129.61-47.624 170.78-71.086 4 3.982 7.19 8.248 9.53 12.762-27.06 29.104-69.65 60.074-133.48 91.187-223.38 108.899-611.562 160.401-846.707 166.126-194.494-2.822-416.798 34.52-661.359 141.85 1.574-.483-13.302-89.662-13.424-93.269 143.396-52.572 254.967-92.79 416.973-119.534z"/></g></svg>