<svg width="1440" height="670" fill="none" xmlns="http://www.w3.org/2000/svg"><mask id="a" style="mask-type:luminance" maskUnits="userSpaceOnUse" x="-57" y="0" width="1600" height="670"><path d="M9.57.703L1542.45 235.27l-66.43 434.094L-56.857 434.797 9.57.703z" fill="#fff"/></mask><g mask="url(#a)" stroke="#C4A552"><path d="M1314.71 462.729c-236.1-43.037-460.921-16.929-698.854-45.555-164.613-19.801-332.599-60.944-454.193-111.234-89.67-37.093-146.221-77.672-182.703-117.39.564 5.92 1.735 11.874 3.504 17.83 48.148 155.809 494.254 276.114 971.711 321.617 287.465 23.234 519.545 137.541 608.745 179.43 9.17-59.264 13.69-114.669 22.84-149.261-71.53-38.576-152.65-73.843-271.04-95.437h-.01z"/><path d="M1200 267.981c-171.93-13.6-308.798 15.492-446.5 20.519-160.72 5.857-385.71-6.977-600.684-57.267-70.288-16.448-130.854-36.308-173.086-56.142-3.608 4.31-6.393 8.832-8.33 13.528 28.841 26.664 73.068 53.852 138.115 79.362 227.672 89.286 612.357 107.266 843.359 92.789 190.466-19.502 411.386-1.389 659.706 84.517-1.59-.346 5.91-90.438 5.74-94.041-144.77-40.053-257.36-70.532-418.32-83.265z"/></g></svg>