<svg width="1438" height="887" fill="none" xmlns="http://www.w3.org/2000/svg"><mask id="a" style="mask-type:luminance" maskUnits="userSpaceOnUse" x="-162" y="-63" width="1688" height="950"><path d="M1381.37-62.41L-161.089 471.605l143.67 414.98L1525.04 352.57 1381.37-62.41z" fill="#fff"/></mask><g mask="url(#a)" stroke="#C4A552"><path d="M113.429 650.952c236.387-89.064 473.077-107.711 713.844-182.924 166.574-52.033 332.937-125.779 449.817-199.385 86.19-54.287 137.57-105.473 168.38-151.846.44 5.95.26 12.053-.54 18.276-22.77 163.165-462.67 369.898-947.879 509.053-292.858 79.678-512.76 238.232-597.633 297.156-19.717-56.634-33.972-110.381-49.4-142.688 67.201-52.169 144.87-102.966 263.409-147.641l.002-.001z"/><path d="M198.217 436.243c175.199-47.361 321.58-45.699 464.657-67.932C829.865 342.35 1060 285.266 1273.31 193.221c69.74-30.1 128.85-61.645 169.04-89.544 4.47 3.537 8.13 7.447 10.94 11.696-25.17 31.991-66.15 67.536-128.91 105.538-219.68 133.01-613.841 226.704-854.905 258.04-200.069 18.378-425.09 79.866-666.669 213.618 1.573-.654-21.747-88.021-22.198-91.608 142.582-68.086 253.58-120.376 417.609-164.718z"/></g></svg>