<svg width="27" height="26" viewBox="0 0 27 26" fill="none" xmlns="http://www.w3.org/2000/svg">
<path d="M5.45634 19.57C6.7019 18.7325 7.97912 18.0904 9.28801 17.6437C10.5969 17.1968 12.0008 16.9733 13.4997 16.9733C14.9986 16.9733 16.4059 17.1968 17.7218 17.6437C19.0379 18.0904 20.3187 18.7325 21.5642 19.57C22.4298 18.5214 23.0613 17.4271 23.4588 16.2871C23.8564 15.1471 24.0551 13.9403 24.0551 12.6667C24.0551 9.69 23.0401 7.18654 21.0101 5.15628C18.9798 3.12624 16.4763 2.11122 13.4997 2.11122C10.523 2.11122 8.01955 3.12624 5.98929 5.15628C3.95925 7.18654 2.94422 9.69 2.94422 12.6667C2.94422 13.9403 3.14647 15.1471 3.55096 16.2871C3.95566 17.4271 4.59079 18.5214 5.45634 19.57ZM13.4959 13.7221C12.267 13.7221 11.232 13.3004 10.391 12.457C9.5501 11.6134 9.12967 10.5772 9.12967 9.34832C9.12967 8.11944 9.55148 7.08457 10.3951 6.24372C11.2385 5.40265 12.2746 4.98212 13.5035 4.98212C14.7324 4.98212 15.7673 5.40392 16.6084 6.24752C17.4492 7.09112 17.8697 8.12736 17.8697 9.35624C17.8697 10.5851 17.4479 11.62 16.6043 12.4608C15.7609 13.3017 14.7248 13.7221 13.4959 13.7221ZM13.4911 25.3333C11.7368 25.3333 10.0882 25.0008 8.54543 24.3358C7.00241 23.6708 5.66027 22.7649 4.51901 21.6179C3.37753 20.4707 2.47788 19.1277 1.82006 17.5889C1.16202 16.0501 0.833008 14.4059 0.833008 12.6562C0.833008 10.9065 1.16551 9.26219 1.83051 7.72319C2.49551 6.1844 3.40149 4.845 4.54846 3.705C5.69564 2.565 7.03862 1.6625 8.57741 0.9975C10.1162 0.3325 11.7604 0 13.5101 0C15.2598 0 16.9042 0.3325 18.4432 0.9975C19.9819 1.6625 21.3213 2.565 22.4613 3.705C23.6013 4.845 24.5038 6.18556 25.1688 7.72667C25.8338 9.26778 26.1663 10.9125 26.1663 12.661C26.1663 14.4096 25.8338 16.0528 25.1688 17.5905C24.5038 19.1283 23.6013 20.4707 22.4613 21.6179C21.3213 22.7649 19.9798 23.6708 18.4368 24.3358C16.894 25.0008 15.2455 25.3333 13.4911 25.3333Z" fill="white"/>
</svg>
