<svg width="29" height="25" viewBox="0 0 29 25" fill="none" xmlns="http://www.w3.org/2000/svg">
<path d="M14.2559 25C13.2302 24.188 12.1191 23.5577 10.9226 23.109C9.72597 22.6603 8.48665 22.4359 7.2046 22.4359C5.9296 22.4359 4.69744 22.6478 3.50813 23.0715C2.3186 23.4954 1.20033 24.0635 0.15332 24.7756V6.45289C1.20738 5.78344 2.33099 5.28846 3.52415 4.96795C4.7171 4.64744 5.94392 4.48718 7.2046 4.48718C8.44392 4.48718 9.66187 4.64744 10.8584 4.96795C12.055 5.28846 13.1875 5.76923 14.2559 6.41026V22.3933C15.3243 21.7166 16.4514 21.1984 17.6373 20.8388C18.8232 20.479 20.0465 20.299 21.3072 20.299C22.1619 20.299 23.0024 20.3775 23.8286 20.5343C24.6547 20.6909 25.4524 20.9544 26.2216 21.3247V5.40609C26.5992 5.54135 26.9677 5.69444 27.3274 5.86538C27.6872 6.03632 28.0309 6.23216 28.3584 6.45289V24.7756C27.3114 24.0635 26.1932 23.4954 25.0036 23.0715C23.8143 22.6478 22.5822 22.4359 21.3072 22.4359C20.0251 22.4359 18.7858 22.6603 17.5892 23.109C16.3926 23.5577 15.2815 24.188 14.2559 25ZM16.3927 19.2949V7.69231L24.0851 0V12.5426L16.3927 19.2949Z" fill="white"/>
</svg>
