<svg width="84" height="84" viewBox="0 0 84 84" fill="none" xmlns="http://www.w3.org/2000/svg">
<g clip-path="url(#clip0_46_3)">
<path d="M82.2447 21.6502C81.2787 18.0127 78.4324 15.148 74.8182 14.1756C68.2676 12.4089 42 12.4089 42 12.4089C42 12.4089 15.7324 12.4089 9.18176 14.1756C5.56763 15.1478 2.7213 18.0127 1.7553 21.6502C0 28.2436 0 41.9999 0 41.9999C0 41.9999 0 55.7562 1.7553 62.3496C2.7213 65.9872 5.56763 68.8519 9.18176 69.8243C15.7324 71.5909 42 71.5909 42 71.5909C42 71.5909 68.2676 71.5909 74.8182 69.8243C78.4324 68.8519 81.2787 65.9872 82.2447 62.3496C84 55.7562 84 41.9999 84 41.9999C84 41.9999 84 28.2436 82.2447 21.6502Z" fill="#FF0000"/>
<path d="M33.4089 54.4898L55.3635 42.0003L33.4089 29.5103V54.4898Z" fill="white"/>
</g>
<defs>
<clipPath id="clip0_46_3">
<rect width="84" height="84" fill="white"/>
</clipPath>
</defs>
</svg>
