<svg width="23" height="22" viewBox="0 0 23 22" fill="none" xmlns="http://www.w3.org/2000/svg">
<path d="M7.27727 0.0769314C6.10687 0.132151 5.30761 0.318931 4.60889 0.593491C3.88575 0.875311 3.27283 1.25349 2.66299 1.86553C2.05315 2.47757 1.67761 3.09093 1.39777 3.81517C1.12695 4.51543 0.943466 5.31535 0.891766 6.48641C0.840066 7.65747 0.828626 8.03389 0.834346 11.0211C0.840066 14.0082 0.853266 14.3827 0.910026 15.5561C0.965906 16.7263 1.15203 17.5254 1.42659 18.2243C1.70885 18.9474 2.08659 19.5601 2.69885 20.1702C3.31111 20.7803 3.92403 21.1549 4.65003 21.4352C5.34963 21.7056 6.14977 21.8899 7.32061 21.9412C8.49145 21.9925 8.86831 22.0043 11.8546 21.9986C14.8409 21.9929 15.2168 21.9797 16.3901 21.924C17.5634 21.8684 18.3582 21.6809 19.0574 21.4077C19.7805 21.1248 20.3937 20.7477 21.0033 20.1352C21.6129 19.5227 21.9882 18.9089 22.2678 18.1843C22.5389 17.4847 22.723 16.6845 22.7738 15.5146C22.8251 14.3404 22.8372 13.9655 22.8315 10.9788C22.8258 7.99209 22.8123 7.61765 22.7567 6.44461C22.701 5.27157 22.5147 4.47495 22.2403 3.77557C21.9576 3.05243 21.5803 2.44017 20.9683 1.82967C20.3563 1.21917 19.742 0.844071 19.0176 0.565111C18.3175 0.294291 17.5178 0.109711 16.347 0.0591114C15.1761 0.00851137 14.7993 -0.00446863 11.8119 0.00125137C8.82453 0.00697137 8.45053 0.0197314 7.27727 0.0769314ZM7.40575 19.9623C6.33325 19.9157 5.75091 19.7375 5.36283 19.5883C4.84891 19.3903 4.48283 19.1509 4.09607 18.7679C3.70931 18.3849 3.47171 18.0175 3.27107 17.5047C3.12037 17.1166 2.93887 16.5349 2.88871 15.4624C2.83415 14.3032 2.82271 13.9552 2.81633 11.0184C2.80995 8.08163 2.82117 7.73403 2.87199 6.57441C2.91775 5.50279 3.09705 4.91979 3.24599 4.53193C3.44399 4.01735 3.68247 3.65193 4.06637 3.26539C4.45027 2.87885 4.81657 2.64081 5.32983 2.44017C5.71747 2.28881 6.29915 2.10885 7.37121 2.05781C8.53127 2.00281 8.87887 1.99181 11.8152 1.98543C14.7515 1.97905 15.1 1.99005 16.2605 2.04109C17.3321 2.08773 17.9154 2.26527 18.3028 2.41509C18.8169 2.61309 19.1828 2.85091 19.5693 3.23547C19.9559 3.62003 20.1941 3.98501 20.3948 4.49937C20.5463 4.88591 20.7263 5.46737 20.7769 6.54009C20.8321 7.70015 20.8447 8.04797 20.8499 10.9841C20.8552 13.9202 20.8449 14.2689 20.7941 15.4281C20.7472 16.5006 20.5694 17.0832 20.4201 17.4717C20.2221 17.9854 19.9834 18.3517 19.5992 18.738C19.2151 19.1243 18.8493 19.3624 18.3358 19.563C17.9486 19.7141 17.3662 19.8945 16.2951 19.9456C15.135 20.0001 14.7874 20.0116 11.85 20.018C8.91253 20.0243 8.56603 20.0125 7.40597 19.9623M16.3732 5.12087C16.3736 5.38196 16.4515 5.63706 16.5969 5.8539C16.7423 6.07074 16.9488 6.23958 17.1902 6.33907C17.4315 6.43856 17.697 6.46424 17.953 6.41284C18.209 6.36145 18.444 6.23529 18.6283 6.05034C18.8125 5.86538 18.9378 5.62993 18.9883 5.37376C19.0387 5.11759 19.0121 4.85221 18.9117 4.61119C18.8113 4.37017 18.6417 4.16432 18.4244 4.0197C18.207 3.87507 17.9516 3.79815 17.6905 3.79867C17.3405 3.79937 17.0051 3.93905 16.7581 4.187C16.511 4.43495 16.3726 4.77086 16.3732 5.12087ZM6.18497 11.0109C6.19113 14.1305 8.72465 16.6537 11.8436 16.6478C14.9625 16.6418 17.4875 14.1085 17.4815 10.9889C17.4756 7.86933 14.9414 5.34549 11.822 5.35165C8.70265 5.35781 6.17903 7.89177 6.18497 11.0109ZM8.16629 11.007C8.16485 10.2818 8.3785 9.57241 8.78021 8.96862C9.18192 8.36483 9.75366 7.89373 10.4231 7.61488C11.0926 7.33602 11.8297 7.26195 12.5412 7.40203C13.2528 7.5421 13.9068 7.89003 14.4207 8.40181C14.9345 8.9136 15.285 9.56626 15.4279 10.2773C15.5708 10.9882 15.4996 11.7256 15.2234 12.3962C14.9472 13.0668 14.4784 13.6404 13.8762 14.0445C13.274 14.4486 12.5655 14.665 11.8403 14.6665C11.3587 14.6675 10.8817 14.5736 10.4365 14.3902C9.9912 14.2069 9.58643 13.9376 9.24525 13.5978C8.90408 13.2579 8.63319 12.8542 8.44806 12.4097C8.26293 11.9652 8.16718 11.4885 8.16629 11.007Z" fill="white"/>
</svg>
