<svg width="16" height="15" viewBox="0 0 16 15" fill="none" xmlns="http://www.w3.org/2000/svg">
<g opacity="0.85">
<mask id="mask0_94_283" style="mask-type:alpha" maskUnits="userSpaceOnUse" x="0" y="0" width="16" height="15">
<rect x="0.666992" width="15" height="15" fill="#D9D9D9"/>
</mask>
<g mask="url(#mask0_94_283)">
<path d="M4.04199 12.7505C3.73262 12.7505 3.46777 12.6403 3.24746 12.42C3.02715 12.1997 2.91699 11.9349 2.91699 11.6255V3.37549C2.91699 3.06611 3.02715 2.80127 3.24746 2.58096C3.46777 2.36064 3.73262 2.25049 4.04199 2.25049H8.16699V3.37549H4.04199V11.6255H12.292V7.50049H13.417V11.6255C13.417 11.9349 13.3068 12.1997 13.0865 12.42C12.8662 12.6403 12.6014 12.7505 12.292 12.7505H4.04199ZM6.71387 9.75049L5.91699 8.95361L11.4951 3.37549H9.66699V2.25049H13.417V6.00049H12.292V4.17236L6.71387 9.75049Z" fill="white"/>
</g>
</g>
</svg>
