<svg width="172" height="31" viewBox="0 0 172 31" fill="none" xmlns="http://www.w3.org/2000/svg">
<g clip-path="url(#clip0_69_128)">
<path d="M100.419 8.14336C94.307 8.14336 89.3418 13.1021 89.3418 19.2207C89.3418 25.3393 94.3005 30.298 100.419 30.298C106.538 30.298 111.496 25.3393 111.496 19.2207C111.496 13.1021 106.538 8.14336 100.419 8.14336ZM100.413 22.5699C98.5686 22.5699 97.0699 21.0712 97.0699 19.2207C97.0699 17.3701 98.5686 15.8779 100.413 15.8779C102.257 15.8779 103.755 17.3766 103.755 19.2207C103.755 21.0647 102.257 22.5699 100.413 22.5699Z" fill="#E60012"/>
<path d="M31.1728 8.04561C33.2384 8.04561 34.9131 6.35795 34.9131 4.27932C34.9131 2.2007 33.2384 0.5 31.1728 0.5C29.1072 0.5 27.4326 2.18766 27.4326 4.26629C27.4326 6.34492 29.1072 8.03258 31.1728 8.03258V8.04561Z" fill="#E60012"/>
<path d="M31.199 8.92528C29.0813 8.92528 27.3546 10.5673 27.2764 12.6199V26.434C27.2764 28.5582 29.0357 30.2784 31.2056 30.2784C33.3754 30.2784 35.1347 28.5582 35.1347 26.434V12.6199C35.0566 10.5673 33.3298 8.92528 31.2056 8.92528H31.199Z" fill="#E60012"/>
<path d="M60.7165 8.0391C62.7821 8.0391 64.4567 6.35144 64.4567 4.27281C64.4567 2.19419 62.7821 0.506523 60.7165 0.506523C58.6509 0.506523 56.9697 2.19419 56.9697 4.27281C56.9697 6.35144 58.6444 8.0391 60.7165 8.0391Z" fill="#E60012"/>
<path d="M60.7427 8.92528C58.6249 8.92528 56.8982 10.5673 56.8135 12.6199V26.434C56.8135 28.5582 58.5728 30.2784 60.7427 30.2784C62.9125 30.2784 64.6719 28.5582 64.6719 26.434V12.6199C64.5937 10.5673 62.8669 8.92528 60.7492 8.92528H60.7427Z" fill="#E60012"/>
<path d="M84.481 8.15639C82.2916 8.15639 80.5192 9.87663 80.5192 12.0009C80.5192 12.0139 80.5192 12.0269 80.5192 12.04V15.1481C80.5192 15.9952 80.0566 16.6794 79.216 16.6794C78.3754 16.6794 77.9193 15.9952 77.9193 15.1481V12.04H77.9128V12.0009C77.9128 9.87663 76.1404 8.15639 73.951 8.15639C71.7616 8.15639 69.9893 9.87663 69.9893 12.0009V12.04V26.5187C69.9893 28.6429 71.7616 30.3632 73.951 30.3632C76.1404 30.3632 77.9128 28.6429 77.9128 26.5187V24.4335C77.9193 23.5864 78.3754 22.9023 79.2225 22.9023C80.0696 22.9023 80.5257 23.5864 80.5257 24.4335V26.5187C80.5257 28.6429 82.3046 30.3632 84.494 30.3632C86.6834 30.3632 88.4558 28.6429 88.4558 26.5187V12.04C88.4558 12.04 88.4558 12.0139 88.4558 12.0009C88.4558 9.87663 86.6834 8.15639 84.494 8.15639H84.481Z" fill="#E60012"/>
<path d="M144.559 15.4739H138.897H138.786C138.545 15.4739 138.349 15.298 138.349 15.0569C138.349 14.8158 138.545 14.6399 138.786 14.6399H138.89H145.38H145.413C147.205 14.6399 148.651 13.1868 148.651 11.4014C148.651 9.61599 147.198 8.16291 145.413 8.16291C145.4 8.16291 145.393 8.16291 145.38 8.16291H139.275L138.356 8.20852C134.648 8.20852 131.644 11.2841 131.644 15.0765C131.644 18.8688 134.648 21.9444 138.356 21.9444L138.89 21.964H145.426C145.66 21.964 145.843 22.1529 145.843 22.3875C145.843 22.6221 145.654 22.811 145.426 22.811H145.315H134.323C134.323 22.811 134.303 22.811 134.29 22.811C132.485 22.811 131.025 24.2772 131.025 26.0821C131.025 27.8871 132.485 29.3532 134.29 29.3532C134.303 29.3532 134.309 29.3532 134.323 29.3532H144.045L144.566 29.3076C148.384 29.3076 151.356 26.2124 151.323 22.394C151.277 17.9305 148.384 15.4805 144.566 15.4805L144.559 15.4739Z" fill="#E60012"/>
<path d="M168.376 22.811H159.214C158.98 22.811 158.797 22.622 158.797 22.394C158.797 22.1659 158.986 21.9704 159.214 21.9704H165.724C165.724 21.9704 165.743 21.9704 165.756 21.9704C167.542 21.9704 168.995 20.5174 168.995 18.732C168.995 16.9466 167.542 15.4935 165.756 15.4935C165.743 15.4935 165.737 15.4935 165.724 15.4935H159.54C159.305 15.4935 159.103 15.311 159.103 15.0764C159.103 14.8419 159.292 14.6594 159.52 14.6594H159.54H164.636C166.401 14.6333 167.828 13.1933 167.828 11.4209C167.828 9.64855 166.401 8.2085 164.636 8.18243H160.048C160.048 8.18243 158.882 8.18895 158.393 8.26714C157.904 8.34534 152.9 9.08165 152.418 14.9917C152.288 16.5817 153.213 18.3605 153.213 18.3605C153.213 18.3605 153.317 18.5169 153.2 18.6994C153.083 18.8818 152.203 20.2828 152.216 22.4787C152.229 24.6746 153.93 28.2519 157.39 29.099C158.582 29.3857 160.817 29.3727 160.817 29.3727H168.382C170.187 29.3727 171.647 27.9066 171.647 26.1016C171.647 24.2967 170.187 22.8306 168.382 22.8306L168.376 22.811Z" fill="#E60012"/>
<path d="M130.452 12.066C130.452 12.066 130.452 12.04 130.452 12.0269C130.452 9.88966 128.679 8.15639 126.49 8.15639C124.3 8.15639 122.528 9.88966 122.528 12.0269V12.066V21.156C122.535 21.9053 122.163 22.5178 121.42 22.5178C120.677 22.5178 120.3 21.9118 120.3 21.156V12.066C120.3 12.053 120.3 12.04 120.3 12.0269C120.3 9.88966 118.527 8.15639 116.338 8.15639C114.148 8.15639 112.376 9.88966 112.376 12.0269C112.376 12.04 112.376 12.053 112.376 12.066V21.397C112.376 26.4275 116.422 30.5 121.414 30.5C126.405 30.5 130.452 26.4275 130.452 21.397V12.066Z" fill="#E60012"/>
<path d="M55.6079 24.1273L51.2943 17.7611C51.2943 17.7611 50.9554 17.4157 51.2487 17.116L53.8551 13.7928C54.7999 12.6329 54.7283 10.9453 53.6401 9.86359C52.4867 8.72328 50.6101 8.68419 49.4111 9.79192L49.3981 9.79843C49.3851 9.81147 49.3655 9.8245 49.3525 9.83753C49.3525 9.83753 49.346 9.84405 49.3395 9.85056L45.4363 13.4279C45.4363 13.4279 44.4589 14.2359 44.1396 12.7763V13.7732V12.0334C44.1396 9.91572 42.3803 8.19548 40.2104 8.19548C38.0406 8.19548 36.2878 9.91572 36.2812 12.0334V26.4535C36.2812 28.5778 38.0406 30.298 40.2104 30.298C42.3803 30.298 44.1396 28.5778 44.1396 26.4535V23.3193C44.1657 23.0195 44.3221 22.5699 44.713 22.6546C45.0454 22.7328 45.5536 23.5083 45.5536 23.5083L48.8833 28.2454C48.9289 28.3236 48.9811 28.4018 49.0332 28.48C50.2973 30.2328 52.7734 30.6564 54.5653 29.4183C56.3182 28.2129 56.7678 25.8736 55.6079 24.1273Z" fill="#E60012"/>
<path d="M19.4309 7.99348C17.5217 7.99348 15.9057 8.64509 14.6872 9.87011C14.4722 10.1503 14.0161 10.639 13.5599 11.3102C13.2276 11.7989 13.1234 11.7793 13.0582 11.7793C12.9931 11.7793 12.8692 11.864 12.5174 11.3036C12.1329 10.6846 11.3836 9.87011 11.3836 9.87011C10.2433 8.71677 8.66638 8.00652 6.65291 8.00652C2.92572 8 0.0651607 10.7498 0.0651607 14.1381L0 15.3501V26.4535C0 28.5778 1.75934 30.298 3.92919 30.298C6.09904 30.298 7.85838 28.5778 7.85838 26.4535V16.9075C7.85838 16.5426 8.05387 16.1907 8.47741 16.1907C8.90096 16.1907 9.10295 16.5426 9.10295 16.9075V26.4535C9.10295 28.5778 10.8623 30.298 13.0321 30.298C15.202 30.298 16.9613 28.5778 16.9613 26.4535L16.9548 16.927C16.9548 16.5165 17.1568 16.1907 17.5738 16.1907C17.9909 16.1907 18.2124 16.5165 18.2124 16.9205V26.4535C18.2124 28.5778 19.9718 30.298 22.1416 30.298C24.3115 30.298 26.0708 28.5778 26.0708 26.4535L26.0838 15.3436L26.0187 14.1316C26.0187 10.7433 23.1581 7.99348 19.4309 7.99348Z" fill="#E60012"/>
</g>
<defs>
<clipPath id="clip0_69_128">
<rect width="171.64" height="30" fill="white" transform="translate(0 0.5)"/>
</clipPath>
</defs>
</svg>
