<svg width="181" height="45" viewBox="0 0 181 45" fill="none" xmlns="http://www.w3.org/2000/svg">
<g clip-path="url(#clip0_206_967)">
<path d="M180.667 0.978516H0.666992V44.6597H180.667V0.978516Z" fill="#231815"/>
<path d="M117.534 22.9592L116.038 22.9723V18.3006L119.913 18.2919V16.0873H116.038L116.029 12.0761L117.516 12.0892C117.516 12.0892 119.235 11.9842 119.708 14.2982H121.291V9.95894L111.825 9.9502L111.847 12.0892H112.984L112.993 22.9854L111.825 22.9986L111.847 25.4656H121.553V20.3084H119.874C119.874 20.3084 119.743 23.1123 117.534 22.9592Z" fill="#EEA300"/>
<path d="M101.217 12.0673L101.204 22.9811L100.058 23.0029V25.4569H109.764V20.3871L107.992 20.3653C107.992 20.3653 107.962 20.3565 107.957 20.4178C107.752 23.191 106.042 22.9854 106.042 22.9854L103.994 22.9986V12.063L105.062 12.0498L105.07 9.96332L100.049 9.9502L100.058 12.063H101.217V12.0673Z" fill="#EEA300"/>
<path d="M80.2383 12.0801C80.2383 12.0801 81.1919 12.0626 81.1919 12.1151C81.1919 13.6505 81.2575 19.7701 81.1263 20.3343C80.9907 20.8855 80.6932 23.0857 78.0381 23.0857C75.2517 23.0857 75.2211 19.8488 75.2211 19.8488V12.0845L76.2621 12.0933V9.98926H71.4023V12.0889H72.4872C72.4872 12.0889 72.4215 19.3501 72.5265 20.2556C72.9989 26.1083 77.9593 25.9596 77.9593 25.9596H78.1387C83.882 25.9727 83.9608 20.1506 83.9608 20.1506L83.9477 12.0976H84.8488V9.98926H80.2296V12.0845L80.2383 12.0801Z" fill="#EEA300"/>
<path d="M131.023 22.998H125.516V25.4695H131.023V22.998Z" fill="#EEA300"/>
<path d="M45.0738 10.3791C44.7851 10.3266 43.5734 10.0379 42.0075 10.0117C39.5141 9.96356 36.3516 9.98543 36.3516 9.98543V12.1857L37.5545 12.1988L37.572 23.1038L36.3559 23.1125L36.3647 25.4571C36.3647 25.4571 41.3513 25.549 43.779 25.3303C43.779 25.3303 51.3815 24.556 50.6335 16.6693C50.1348 11.3808 45.0782 10.3791 45.0782 10.3791H45.0738ZM47.7377 17.6272C47.344 23.9874 40.5333 23.0775 40.5333 23.0775L40.5421 12.2032C41.0626 12.1419 41.5482 12.2382 42.0075 12.2513C46.1892 12.4088 47.8602 15.5976 47.7377 17.6272Z" fill="#EEA300"/>
<path d="M69.4035 17.557C69.4035 12.999 65.7116 9.31152 61.158 9.31152H61.123C56.5826 9.32902 52.9082 13.0165 52.9082 17.557C52.9082 22.0974 56.6001 25.8068 61.158 25.8068C65.716 25.8068 69.4035 22.1106 69.4035 17.557ZM61.1536 23.1385C58.0698 23.1385 55.5721 20.6408 55.5721 17.557C55.5721 14.4731 58.0479 11.9929 61.1187 11.9754H61.1536C64.2375 11.9754 66.7352 14.4731 66.7352 17.557C66.7352 20.6408 64.2331 23.1385 61.1536 23.1385Z" fill="#EEA300"/>
<path d="M87.482 22.8938H86.3535L86.3622 25.4571H91.6682L92.718 25.4221C92.718 25.4221 97.8402 25.6933 97.5647 20.7329C97.2935 17.9684 95.1194 17.1111 95.1194 17.1111V17.0061C95.1194 17.0061 96.8692 16.1793 96.821 13.7516C96.7817 11.3983 95.2463 10.1866 93.711 10.0029C93.3085 9.9548 92.4555 9.96793 91.4101 9.95918C89.188 9.94168 86.3447 9.95043 86.3447 9.95043V12.0501H87.4864V22.8894L87.482 22.8938ZM94.5333 20.6454C94.5333 21.9402 93.4179 22.662 92.9717 22.767C92.3287 22.9113 91.9875 22.8894 91.9875 22.8894L91.6682 22.8763L90.4871 22.8676V18.2834C90.4871 18.2834 92.0094 18.2571 92.0269 18.2965C92.0444 18.3315 94.5333 18.2177 94.5333 20.6454ZM91.4101 12.0632C91.8169 12.0632 91.865 12.0632 91.8606 12.0544C91.8781 12.0894 93.8466 11.9013 93.8466 13.9616C93.8466 16.0219 92.1625 16.1356 92.1625 16.1356H90.4828L90.474 12.0544C90.474 12.0544 90.9508 12.0588 91.4101 12.0632Z" fill="#EEA300"/>
<path d="M144.141 20.7329C143.87 17.9684 141.687 17.1111 141.687 17.1111L141.7 17.0061C141.7 17.0061 143.441 16.1793 143.402 13.7516C143.358 11.3983 141.823 10.1866 140.283 10.0029C139.881 9.9548 139.032 9.96793 137.987 9.95918C135.76 9.94168 132.917 9.95043 132.917 9.95043V12.0501H134.063V22.8894H132.934L132.952 25.4527H138.245L139.303 25.4177C139.303 25.4177 144.417 25.6889 144.154 20.7286L144.141 20.7329ZM137.046 12.0544C137.046 12.0544 137.527 12.0588 137.982 12.0632C138.389 12.0632 138.437 12.0632 138.429 12.0544C138.45 12.0894 140.419 11.9013 140.419 13.9616C140.419 16.0219 138.73 16.1356 138.73 16.1356H137.055L137.046 12.0544ZM139.548 22.767C138.901 22.9113 138.564 22.8894 138.564 22.8894L138.232 22.8763L137.059 22.8676L137.068 18.2834C137.068 18.2834 138.586 18.2571 138.604 18.2965C138.621 18.3315 141.106 18.2177 141.106 20.6454C141.106 21.9402 139.999 22.662 139.548 22.767Z" fill="#EEA300"/>
<path d="M111.426 32.1018C111.317 32.023 110.744 31.4981 109.76 30.7545C109.305 30.4133 109.572 30.1378 109.663 30.0984C110.263 29.8272 111.133 30.1465 111.133 30.1465L111.846 28.5193C110.486 27.7669 108.758 27.9244 107.848 28.7292C106.938 29.5341 106.925 30.8333 107.363 31.5025C108.032 32.5173 109.554 33.2741 109.803 33.6546C110.035 34.0046 109.803 34.267 109.672 34.3195C108.504 34.8051 107.516 34.1927 107.516 34.1927C107.516 34.1927 106.768 35.7587 106.79 35.7718C109.283 37.1803 111.728 36.0561 112.095 34.6301C112.502 33.0554 111.544 32.1805 111.431 32.1018H111.426Z" fill="#EEA300"/>
<path d="M103.702 30.3823L103.746 33.6979C103.746 33.6979 103.785 34.5028 102.827 34.3759C102.434 34.3191 101.913 33.6673 102.005 32.0095C102.084 30.5222 102.141 30.3823 102.141 30.3823H99.866C99.866 30.3823 98.2475 35.5964 101.17 36.3793C102.556 36.7512 103.715 35.7276 103.715 35.7276L103.75 35.7538V36.4231H106.187L106.117 30.3691L103.698 30.3779L103.702 30.3823Z" fill="#EEA300"/>
<path d="M88.3395 30.7361L88.2914 30.7142V28.2646H85.9512V36.4357H88.2914V33.3606C88.2914 33.3606 88.2651 32.8838 88.3614 32.7307C88.93 31.8471 89.783 32.7526 89.8224 33.4C89.9405 35.399 89.5118 36.4401 89.5118 36.4401H91.7995C91.7995 36.4401 92.8581 32.7614 91.7733 31.2479C90.3648 29.2795 88.3395 30.7448 88.3395 30.7448V30.7361Z" fill="#EEA300"/>
<path d="M81.2046 36.4322H83.5185V30.667H81.2002L81.2046 36.4322Z" fill="#EEA300"/>
<path d="M78.5326 32.1098L80.794 29.5203L78.9831 27.8887L76.6341 30.7407L76.6035 30.7363V28.2605H74.1889L74.1846 36.4272H76.6123L76.6079 33.5096L76.656 33.5008L79.0094 36.6197L80.8728 35.0056L78.5326 32.1448V32.1098Z" fill="#EEA300"/>
<path d="M66.4993 28.2607L65.8301 31.2177H65.8038L65.1958 28.2607H62.3482L61.1934 36.4275H63.8092L64.111 33.0812L64.1635 33.0899L64.8633 36.4275H66.8667L67.5622 33.0812H67.6104L67.9472 36.4275H70.5849L69.3819 28.2607H66.4993Z" fill="#EEA300"/>
<path d="M72.2425 27.8018C71.5251 27.8018 70.9434 28.3835 70.9434 29.1009C70.9434 29.8183 71.5251 30.4001 72.2425 30.4001C72.9599 30.4001 73.5417 29.8227 73.5417 29.1009C73.5417 28.3792 72.9599 27.8018 72.2425 27.8018Z" fill="#EEA300"/>
<path d="M82.3206 27.7793C81.6033 27.7793 81.0215 28.3611 81.0215 29.0784C81.0215 29.7958 81.6033 30.3776 82.3206 30.3776C83.038 30.3776 83.6198 29.7958 83.6198 29.0784C83.6198 28.3611 83.038 27.7793 82.3206 27.7793Z" fill="#EEA300"/>
<path d="M73.4105 30.6621H71.0703V36.4274H73.4105V30.6621Z" fill="#EEA300"/>
<path d="M95.8198 30.0845C95.7804 30.0845 95.7367 30.0845 95.6973 30.0845C94.0001 30.1501 92.6484 31.5454 92.6484 33.2514C92.6484 34.9574 94.0657 36.4227 95.8198 36.4227C97.5738 36.4227 98.9911 35.0011 98.9911 33.2514C98.9911 31.5017 97.5695 30.0801 95.8198 30.0801V30.0845ZM95.8198 34.3143C95.2642 34.3143 94.8093 33.8376 94.8093 33.2558C94.8093 32.7134 95.1986 32.2672 95.7017 32.206C95.7366 32.1972 95.7804 32.1972 95.8241 32.1972C96.384 32.1972 96.8346 32.6696 96.8346 33.2558C96.8346 33.8419 96.384 34.3143 95.8241 34.3143H95.8198Z" fill="#EEA300"/>
<path d="M116.024 29.9971C115.967 29.9971 115.91 30.0014 115.853 30.0058C114.729 30.1108 112.922 30.9419 112.927 33.3084C112.927 36.0204 116.098 37.5164 119.208 35.7929C119.217 35.7886 118.526 34.1526 118.526 34.1526C118.526 34.1526 117.297 34.8875 116.041 34.5375L115.958 34.5025L119.304 32.416C119.304 32.416 118.841 29.9315 116.024 30.0014V29.9971ZM115.123 33.0109C115.123 33.0109 115.083 33.0284 115.083 33.0109C115 32.3285 115.543 31.9436 115.543 31.9436C115.652 31.8867 115.757 31.843 115.853 31.8124C116.487 31.6155 116.78 31.9917 116.78 31.9917L115.127 33.0109H115.123Z" fill="#EEA300"/>
</g>
<defs>
<clipPath id="clip0_206_967">
<rect width="180" height="43.6812" fill="white" transform="translate(0.666992 0.978516)"/>
</clipPath>
</defs>
</svg>
