<svg width="172" height="31" viewBox="0 0 172 31" fill="none" xmlns="http://www.w3.org/2000/svg">
<g clip-path="url(#clip0_206_899)">
<path d="M100.599 8.62207C94.4867 8.62207 89.5215 13.5808 89.5215 19.6994C89.5215 25.818 94.4802 30.7767 100.599 30.7767C106.717 30.7767 111.676 25.818 111.676 19.6994C111.676 13.5808 106.717 8.62207 100.599 8.62207ZM100.592 23.0487C98.7483 23.0487 97.2495 21.55 97.2495 19.6994C97.2495 17.8488 98.7483 16.3566 100.592 16.3566C102.436 16.3566 103.935 17.8553 103.935 19.6994C103.935 21.5434 102.436 23.0487 100.592 23.0487Z" fill="#C3B889"/>
<path d="M31.3525 8.52413C33.4181 8.52413 35.0928 6.83647 35.0928 4.75784C35.0928 2.67921 33.4181 0.978516 31.3525 0.978516C29.2869 0.978516 27.6123 2.66618 27.6123 4.74481C27.6123 6.82343 29.2869 8.5111 31.3525 8.5111V8.52413Z" fill="#C3B889"/>
<path d="M31.3787 9.40332C29.261 9.40332 27.5342 11.0454 27.4561 13.0979V26.912C27.4561 29.0362 29.2154 30.7565 31.3852 30.7565C33.5551 30.7565 35.3144 29.0362 35.3144 26.912V13.0979C35.2362 11.0454 33.5095 9.40332 31.3852 9.40332H31.3787Z" fill="#C3B889"/>
<path d="M60.8962 8.51793C62.9618 8.51793 64.6364 6.83027 64.6364 4.75164C64.6364 2.67301 62.9618 0.985352 60.8962 0.985352C58.8306 0.985352 57.1494 2.67301 57.1494 4.75164C57.1494 6.83027 58.824 8.51793 60.8962 8.51793Z" fill="#C3B889"/>
<path d="M60.9224 9.40332C58.8046 9.40332 57.0779 11.0454 56.9932 13.0979V26.912C56.9932 29.0362 58.7525 30.7565 60.9224 30.7565C63.0922 30.7565 64.8515 29.0362 64.8515 26.912V13.0979C64.7734 11.0454 63.0466 9.40332 60.9289 9.40332H60.9224Z" fill="#C3B889"/>
<path d="M84.6607 8.63477C82.4713 8.63477 80.6989 10.355 80.6989 12.4792C80.6989 12.4923 80.6989 12.5053 80.6989 12.5183V15.6265C80.6989 16.4736 80.2363 17.1578 79.3957 17.1578C78.5551 17.1578 78.099 16.4736 78.099 15.6265V12.5183H78.0925V12.4792C78.0925 10.355 76.3201 8.63477 74.1307 8.63477C71.9413 8.63477 70.1689 10.355 70.1689 12.4792V12.5183V26.9971C70.1689 29.1213 71.9413 30.8415 74.1307 30.8415C76.3201 30.8415 78.0925 29.1213 78.0925 26.9971V24.9119C78.099 24.0648 78.5551 23.3806 79.4022 23.3806C80.2493 23.3806 80.7054 24.0648 80.7054 24.9119V26.9971C80.7054 29.1213 82.4843 30.8415 84.6737 30.8415C86.8631 30.8415 88.6355 29.1213 88.6355 26.9971V12.5183C88.6355 12.5183 88.6355 12.4923 88.6355 12.4792C88.6355 10.355 86.8631 8.63477 84.6737 8.63477H84.6607Z" fill="#C3B889"/>
<path d="M144.739 15.9526H139.076H138.966C138.725 15.9526 138.529 15.7767 138.529 15.5356C138.529 15.2945 138.725 15.1186 138.966 15.1186H139.07H145.56H145.593C147.384 15.1186 148.831 13.6655 148.831 11.8801C148.831 10.0947 147.378 8.6416 145.593 8.6416C145.58 8.6416 145.573 8.6416 145.56 8.6416H139.454L138.536 8.68721C134.828 8.68721 131.824 11.7628 131.824 15.5552C131.824 19.3475 134.828 22.4231 138.536 22.4231L139.07 22.4426H145.606C145.84 22.4426 146.023 22.6316 146.023 22.8662C146.023 23.1008 145.834 23.2897 145.606 23.2897H145.495H134.502C134.502 23.2897 134.483 23.2897 134.47 23.2897C132.665 23.2897 131.205 24.7558 131.205 26.5608C131.205 28.3658 132.665 29.8319 134.47 29.8319C134.483 29.8319 134.489 29.8319 134.502 29.8319H144.224L144.745 29.7863C148.564 29.7863 151.535 26.6911 151.503 22.8727C151.457 18.4092 148.564 15.9592 144.745 15.9592L144.739 15.9526Z" fill="#C3B889"/>
<path d="M168.556 23.2897H159.394C159.159 23.2897 158.977 23.1007 158.977 22.8727C158.977 22.6446 159.166 22.4491 159.394 22.4491H165.903C165.903 22.4491 165.923 22.4491 165.936 22.4491C167.721 22.4491 169.175 20.9961 169.175 19.2107C169.175 17.4253 167.721 15.9722 165.936 15.9722C165.923 15.9722 165.916 15.9722 165.903 15.9722H159.72C159.485 15.9722 159.283 15.7897 159.283 15.5551C159.283 15.3206 159.472 15.1381 159.7 15.1381H159.72H164.815C166.581 15.112 168.008 13.672 168.008 11.8996C168.008 10.1272 166.581 8.6872 164.815 8.66113H160.228C160.228 8.66113 159.062 8.66765 158.573 8.74584C158.084 8.82403 153.08 9.56035 152.598 15.4704C152.467 17.0604 153.393 18.8392 153.393 18.8392C153.393 18.8392 153.497 18.9956 153.38 19.1781C153.262 19.3605 152.383 20.7615 152.396 22.9574C152.409 25.1533 154.109 28.7306 157.569 29.5777C158.762 29.8644 160.997 29.8514 160.997 29.8514H168.562C170.367 29.8514 171.827 28.3853 171.827 26.5803C171.827 24.7754 170.367 23.3093 168.562 23.3093L168.556 23.2897Z" fill="#C3B889"/>
<path d="M130.631 12.5444C130.631 12.5444 130.631 12.5183 130.631 12.5053C130.631 10.368 128.859 8.63477 126.669 8.63477C124.48 8.63477 122.708 10.368 122.708 12.5053V12.5444V21.6343C122.714 22.3837 122.343 22.9962 121.6 22.9962C120.857 22.9962 120.479 22.3902 120.479 21.6343V12.5444C120.479 12.5314 120.479 12.5183 120.479 12.5053C120.479 10.368 118.707 8.63477 116.517 8.63477C114.328 8.63477 112.556 10.368 112.556 12.5053C112.556 12.5183 112.556 12.5314 112.556 12.5444V21.8754C112.556 26.9058 116.602 30.9784 121.593 30.9784C126.585 30.9784 130.631 26.9058 130.631 21.8754V12.5444Z" fill="#C3B889"/>
<path d="M55.7876 24.6056L51.474 18.2394C51.474 18.2394 51.1351 17.8941 51.4284 17.5943L54.0348 14.2711C54.9796 13.1113 54.9079 11.4236 53.8198 10.3419C52.6664 9.20163 50.7898 9.16253 49.5908 10.2703L49.5778 10.2768C49.5648 10.2898 49.5452 10.3028 49.5322 10.3159C49.5322 10.3159 49.5257 10.3224 49.5191 10.3289L45.616 13.9062C45.616 13.9062 44.6386 14.7142 44.3193 13.2546V14.2516V12.5118C44.3193 10.3941 42.56 8.67383 40.3901 8.67383C38.2203 8.67383 36.4675 10.3941 36.4609 12.5118V26.9319C36.4609 29.0561 38.2203 30.7763 40.3901 30.7763C42.56 30.7763 44.3193 29.0561 44.3193 26.9319V23.7976C44.3454 23.4979 44.5018 23.0483 44.8927 23.133C45.2251 23.2112 45.7333 23.9866 45.7333 23.9866L49.063 28.7238C49.1086 28.802 49.1608 28.8802 49.2129 28.9584C50.477 30.7112 52.9531 31.1347 54.745 29.8967C56.4979 28.6912 56.9475 26.3519 55.7876 24.6056Z" fill="#C3B889"/>
<path d="M19.6106 8.47168C17.7014 8.47168 16.0854 9.12329 14.8669 10.3483C14.6519 10.6285 14.1958 11.1172 13.7396 11.7884C13.4073 12.2771 13.3031 12.2575 13.2379 12.2575C13.1727 12.2575 13.0489 12.3422 12.6971 11.7818C12.3126 11.1628 11.5633 10.3483 11.5633 10.3483C10.423 9.19496 8.84606 8.48471 6.8326 8.48471C3.1054 8.4782 0.244848 11.228 0.244848 14.6163L0.179688 15.8283V26.9317C0.179688 29.056 1.93903 30.7762 4.10888 30.7762C6.27873 30.7762 8.03807 29.056 8.03807 26.9317V17.3857C8.03807 17.0208 8.23355 16.6689 8.6571 16.6689C9.08064 16.6689 9.28264 17.0208 9.28264 17.3857V26.9317C9.28264 29.056 11.042 30.7762 13.2118 30.7762C15.3817 30.7762 17.141 29.056 17.141 26.9317L17.1345 17.4052C17.1345 16.9947 17.3365 16.6689 17.7535 16.6689C18.1706 16.6689 18.3921 16.9947 18.3921 17.3987V26.9317C18.3921 29.056 20.1515 30.7762 22.3213 30.7762C24.4912 30.7762 26.2505 29.056 26.2505 26.9317L26.2635 15.8218L26.1984 14.6098C26.1984 11.2215 23.3378 8.47168 19.6106 8.47168Z" fill="#C3B889"/>
</g>
<defs>
<clipPath id="clip0_206_899">
<rect width="171.64" height="30" fill="white" transform="translate(0.179688 0.978516)"/>
</clipPath>
</defs>
</svg>
