<svg width="86" height="15" viewBox="0 0 86 15" fill="none" xmlns="http://www.w3.org/2000/svg">
<g clip-path="url(#clip0_2025_161)">
<path d="M50.2096 3.82178C47.1535 3.82178 44.6709 6.30114 44.6709 9.36044C44.6709 12.4197 47.1503 14.8991 50.2096 14.8991C53.2689 14.8991 55.7482 12.4197 55.7482 9.36044C55.7482 6.30114 53.2689 3.82178 50.2096 3.82178ZM50.2063 11.0351C49.2843 11.0351 48.5349 10.2857 48.5349 9.36044C48.5349 8.43516 49.2843 7.68907 50.2063 7.68907C51.1283 7.68907 51.8777 8.43842 51.8777 9.36044C51.8777 10.2825 51.1283 11.0351 50.2063 11.0351Z" fill="white"/>
<path d="M15.5869 3.77281C16.6197 3.77281 17.457 2.92897 17.457 1.88966C17.457 0.850348 16.6197 0 15.5869 0C14.5541 0 13.7168 0.843831 13.7168 1.88315C13.7168 2.92246 14.5541 3.76629 15.5869 3.76629V3.77281Z" fill="white"/>
<path d="M15.599 4.2124C14.5402 4.2124 13.6768 5.03343 13.6377 6.05971V12.9667C13.6377 14.0289 14.5174 14.889 15.6023 14.889C16.6872 14.889 17.5669 14.0289 17.5669 12.9667V6.05971C17.5278 5.03343 16.6644 4.2124 15.6023 4.2124H15.599Z" fill="white"/>
<path d="M30.3587 3.76971C31.3915 3.76971 32.2288 2.92588 32.2288 1.88656C32.2288 0.847249 31.3915 0.00341797 30.3587 0.00341797C29.3259 0.00341797 28.4854 0.847249 28.4854 1.88656C28.4854 2.92588 29.3227 3.76971 30.3587 3.76971Z" fill="white"/>
<path d="M30.3718 4.2124C29.313 4.2124 28.4496 5.03343 28.4072 6.05971V12.9667C28.4072 14.0289 29.2869 14.889 30.3718 14.889C31.4567 14.889 32.3364 14.0289 32.3364 12.9667V6.05971C32.2973 5.03343 31.4339 4.2124 30.3751 4.2124H30.3718Z" fill="white"/>
<path d="M42.24 3.82812C41.1453 3.82812 40.2591 4.68825 40.2591 5.75037C40.2591 5.75688 40.2591 5.7634 40.2591 5.76991V7.324C40.2591 7.74754 40.0278 8.08964 39.6075 8.08964C39.1872 8.08964 38.9592 7.74754 38.9592 7.324V5.76991H38.9559V5.75037C38.9559 4.68825 38.0697 3.82812 36.975 3.82812C35.8803 3.82812 34.9941 4.68825 34.9941 5.75037V5.76991V13.0093C34.9941 14.0714 35.8803 14.9315 36.975 14.9315C38.0697 14.9315 38.9559 14.0714 38.9559 13.0093V11.9667C38.9592 11.5432 39.1872 11.2011 39.6108 11.2011C40.0343 11.2011 40.2624 11.5432 40.2624 11.9667V13.0093C40.2624 14.0714 41.1518 14.9315 42.2465 14.9315C43.3412 14.9315 44.2274 14.0714 44.2274 13.0093V5.76991C44.2274 5.76991 44.2274 5.75688 44.2274 5.75037C44.2274 4.68825 43.3412 3.82812 42.2465 3.82812H42.24Z" fill="white"/>
<path d="M72.2796 7.48706H69.4484H69.393C69.2725 7.48706 69.1747 7.39909 69.1747 7.27855C69.1747 7.158 69.2725 7.07003 69.393 7.07003H69.4451H72.6902H72.7064C73.6024 7.07003 74.3257 6.34349 74.3257 5.45079C74.3257 4.55808 73.5991 3.83154 72.7064 3.83154C72.6999 3.83154 72.6967 3.83154 72.6902 3.83154H69.6374L69.178 3.85435C67.3242 3.85435 65.8222 5.39214 65.8222 7.28832C65.8222 9.1845 67.3242 10.7223 69.178 10.7223L69.4451 10.7321H72.713C72.8302 10.7321 72.9215 10.8265 72.9215 10.9438C72.9215 11.0611 72.827 11.1556 72.713 11.1556H72.6576H67.1613C67.1613 11.1556 67.1515 11.1556 67.145 11.1556C66.2425 11.1556 65.5127 11.8887 65.5127 12.7911C65.5127 13.6936 66.2425 14.4267 67.145 14.4267C67.1515 14.4267 67.1547 14.4267 67.1613 14.4267H72.0223L72.2829 14.4039C74.1921 14.4039 75.6778 12.8563 75.6615 10.9471C75.6387 8.71534 74.1921 7.49032 72.2829 7.49032L72.2796 7.48706Z" fill="white"/>
<path d="M84.1874 11.1556H79.6066C79.4893 11.1556 79.3981 11.0611 79.3981 10.9471C79.3981 10.8331 79.4926 10.7353 79.6066 10.7353H82.8614C82.8614 10.7353 82.8712 10.7353 82.8777 10.7353C83.7704 10.7353 84.4969 10.0088 84.4969 9.11607C84.4969 8.22337 83.7704 7.49683 82.8777 7.49683C82.8712 7.49683 82.8679 7.49683 82.8614 7.49683H79.7695C79.6522 7.49683 79.5512 7.4056 79.5512 7.28831C79.5512 7.17102 79.6457 7.0798 79.7597 7.0798H79.7695H82.3173C83.2002 7.06676 83.9137 6.34674 83.9137 5.46055C83.9137 4.57437 83.2002 3.85434 82.3173 3.84131H80.0236C80.0236 3.84131 79.4405 3.84457 79.1961 3.88366C78.9518 3.92276 76.4496 4.29092 76.2085 7.24596C76.1433 8.04092 76.606 8.93036 76.606 8.93036C76.606 8.93036 76.6581 9.00855 76.5995 9.09978C76.5408 9.191 76.101 9.89148 76.1075 10.9894C76.114 12.0874 76.9644 13.8761 78.6944 14.2996C79.2906 14.443 80.4081 14.4364 80.4081 14.4364H84.1907C85.0932 14.4364 85.823 13.7034 85.823 12.8009C85.823 11.8984 85.0932 11.1654 84.1907 11.1654L84.1874 11.1556Z" fill="white"/>
<path d="M65.2263 5.78295C65.2263 5.78295 65.2263 5.76991 65.2263 5.7634C65.2263 4.69476 64.3401 3.82812 63.2454 3.82812C62.1507 3.82812 61.2645 4.69476 61.2645 5.7634V5.78295V10.3279C61.2677 10.7026 61.082 11.0088 60.7106 11.0088C60.3392 11.0088 60.1502 10.7058 60.1502 10.3279V5.78295C60.1502 5.77643 60.1502 5.76991 60.1502 5.7634C60.1502 4.69476 59.2641 3.82812 58.1694 3.82812C57.0747 3.82812 56.1885 4.69476 56.1885 5.7634C56.1885 5.76991 56.1885 5.77643 56.1885 5.78295V10.4485C56.1885 12.9637 58.2117 14.9999 60.7074 14.9999C63.203 14.9999 65.2263 12.9637 65.2263 10.4485V5.78295Z" fill="white"/>
<path d="M27.804 11.8136L25.6471 8.63045C25.6471 8.63045 25.4777 8.45778 25.6243 8.30791L26.9275 6.64631C27.4 6.06638 27.3641 5.22255 26.82 4.68171C26.2434 4.11156 25.305 4.09201 24.7056 4.64588L24.6991 4.64913C24.6925 4.65565 24.6828 4.66217 24.6762 4.66868C24.6762 4.66868 24.673 4.67194 24.6697 4.6752L22.7182 6.46386C22.7182 6.46386 22.2295 6.86786 22.0698 6.13806V6.63654V5.76664C22.0698 4.70778 21.1901 3.84766 20.1052 3.84766C19.0203 3.84766 18.1439 4.70778 18.1406 5.76664V12.9767C18.1406 14.0388 19.0203 14.8989 20.1052 14.8989C21.1901 14.8989 22.0698 14.0388 22.0698 12.9767V11.4096C22.0828 11.2597 22.161 11.0349 22.3565 11.0772C22.5227 11.1163 22.7768 11.504 22.7768 11.504L24.4417 13.8726C24.4645 13.9117 24.4905 13.9508 24.5166 13.9899C25.1487 14.8663 26.3867 15.0781 27.2827 14.4591C28.1591 13.8563 28.3839 12.6867 27.804 11.8136Z" fill="white"/>
<path d="M9.71547 3.74658C8.76086 3.74658 7.95287 4.07239 7.34362 4.6849C7.2361 4.82499 7.00804 5.06934 6.77997 5.40492C6.61381 5.64928 6.56169 5.6395 6.52911 5.6395C6.49653 5.6395 6.43462 5.68186 6.25869 5.40166C6.06646 5.09215 5.69179 4.6849 5.69179 4.6849C5.12163 4.10822 4.33319 3.7531 3.32646 3.7531C1.46286 3.74984 0.0325804 5.12473 0.0325804 6.81891L0 7.42491V12.9766C0 14.0387 0.87967 14.8988 1.9646 14.8988C3.04952 14.8988 3.92919 14.0387 3.92919 12.9766V8.20358C3.92919 8.02113 4.02693 7.84519 4.23871 7.84519C4.45048 7.84519 4.55148 8.02113 4.55148 8.20358V12.9766C4.55148 14.0387 5.43115 14.8988 6.51607 14.8988C7.601 14.8988 8.48067 14.0387 8.48067 12.9766L8.47741 8.21335C8.47741 8.00809 8.57841 7.84519 8.78692 7.84519C8.99544 7.84519 9.10621 8.00809 9.10621 8.21009V12.9766C9.10621 14.0387 9.98588 14.8988 11.0708 14.8988C12.1557 14.8988 13.0354 14.0387 13.0354 12.9766L13.0419 7.42165L13.0093 6.81565C13.0093 5.12147 11.5791 3.74658 9.71547 3.74658Z" fill="white"/>
</g>
<defs>
<clipPath id="clip0_2025_161">
<rect width="85.8199" height="15" fill="white"/>
</clipPath>
</defs>
</svg>
