<svg width="132" height="132" fill="none" xmlns="http://www.w3.org/2000/svg"><path d="M65.706 110a41.62 41.62 0 01-9.123-.99c-2.948-.661-5.617-1.505-8.005-2.532-3.433-1.468-6.22-3.261-8.364-5.379C38.07 98.98 37 96.621 37 94.02V68.268c0-2.304.87-4.424 2.61-6.36 1.74-1.935 3.978-3.648 6.718-5.137 2.813-1.489 5.93-2.632 9.355-3.427A45.426 45.426 0 0166 52.15c3.454 0 6.894.398 10.317 1.194 3.424.795 6.543 1.937 9.356 3.425 2.813 1.487 5.07 3.198 6.774 5.133C94.149 63.834 95 65.954 95 68.26v25.774c0 1.264-.276 2.49-.83 3.677-.552 1.187-1.345 2.299-2.377 3.337-1.033 1.039-2.26 2.022-3.683 2.949a32.6 32.6 0 01-4.66 2.503c.088-.372.22-1.414.395-3.125 0-4.316-1.528-7.999-4.585-11.05-3.058-3.05-6.734-4.576-11.03-4.576-3.218 0-6.062.84-8.532 2.518-2.47 1.68-4.318 3.86-5.542 6.543 2.34.702 4.5 1.15 6.484 1.345 1.983.197 3.722.295 5.219.295 1.272 0 2.302-.044 3.087-.131.786-.088 1.291-.132 1.516-.132v11.549c-.832.155-1.642.238-2.43.249-.787.009-1.562.014-2.326.014zm13.65-24.475c2.446 0 4.549-.868 6.31-2.606 1.761-1.737 2.642-3.825 2.642-6.266 0-2.44-.878-4.537-2.634-6.294-1.756-1.756-3.867-2.634-6.333-2.634s-4.562.875-6.289 2.627c-1.727 1.75-2.59 3.856-2.59 6.316s.87 4.55 2.613 6.272c1.741 1.724 3.835 2.585 6.28 2.585zM66 47.7c3.718 0 6.878-1.292 9.48-3.878 2.603-2.586 3.905-5.757 3.905-9.513 0-3.68-1.303-6.82-3.909-9.416C72.871 22.298 69.707 21 65.986 21c-3.797 0-6.974 1.298-9.532 3.893-2.56 2.596-3.839 5.749-3.839 9.457 0 3.729 1.283 6.886 3.848 9.472C59.029 46.408 62.208 47.7 66 47.7z" fill="#E60012"/></svg>