<svg width="138" height="138" fill="none" xmlns="http://www.w3.org/2000/svg"><path d="M32.405 83.223c-2.664 0-4.95-.957-6.858-2.87-1.907-1.913-2.861-4.213-2.861-6.899 0-2.782.956-5.106 2.87-6.971 1.913-1.865 4.212-2.797 6.898-2.797 2.652 0 4.922.932 6.81 2.797 1.889 1.865 2.833 4.168 2.833 6.909 0 2.74-.949 5.063-2.848 6.971-1.898 1.906-4.179 2.86-6.844 2.86zm73.836 0c-2.665 0-4.951-.957-6.859-2.87-1.907-1.913-2.86-4.213-2.86-6.899 0-2.782.956-5.106 2.868-6.971 1.913-1.865 4.213-2.797 6.901-2.797 2.651 0 4.92.932 6.808 2.797 1.889 1.865 2.833 4.168 2.833 6.909 0 2.74-.949 5.063-2.847 6.971-1.897 1.906-4.179 2.86-6.844 2.86zM69.562 76.88c-3.56 0-6.596-1.25-9.109-3.752-2.51-2.503-3.766-5.565-3.766-9.188 0-3.688 1.25-6.766 3.752-9.236 2.5-2.47 5.564-3.704 9.187-3.704 3.519 0 6.555 1.235 9.11 3.704 2.553 2.47 3.83 5.527 3.83 9.172 0 3.646-1.277 6.724-3.83 9.235-2.555 2.513-5.613 3.769-9.174 3.769zm-28.075 36.41c1.455-6.487 4.772-11.851 9.952-16.093 5.178-4.241 11.236-6.361 18.173-6.361 6.936 0 12.978 2.12 18.125 6.36 5.145 4.243 8.446 9.607 9.9 16.094h-56.15zm-31.487 0c0-6.242 2.182-11.545 6.546-15.909 4.364-4.363 9.666-6.545 15.908-6.545 1.894 0 3.675.207 5.346.621a21.034 21.034 0 014.842 1.864c-2.61 2.647-4.784 5.68-6.525 9.102a40.58 40.58 0 00-3.699 10.867H10zm96.645 0c-.685-3.908-1.894-7.563-3.628-10.967a35.372 35.372 0 00-6.66-9.129 25.12 25.12 0 014.742-1.737c1.622-.414 3.352-.621 5.192-.621 6.241 0 11.544 2.182 15.908 6.546 4.364 4.363 6.546 9.666 6.546 15.908h-22.1z" fill="#E60012"/></svg>