<svg width="160" height="160" fill="none" xmlns="http://www.w3.org/2000/svg"><path d="M125 94.833l-15-37.666-18.833 19 3 15L92.5 92.5l-9-16-16-9L69 66l15 3 19-18.833L65.167 35 68 32.333l45.667 7.334 16-16.167c.444-.556.944-.944 1.5-1.167.556-.222 1.222-.333 2-.333.556 0 1.167.139 1.833.417.667.277 1.223.639 1.667 1.083.444.444.778.972 1 1.583.222.611.333 1.195.333 1.75a5.57 5.57 0 01-.333 1.917c-.222.611-.611 1.194-1.167 1.75l-16 16.167 7.167 45.5L125 94.833z" fill="#EA3323"/><path d="M62.667 138l-2.334-2.667 22.5-22.666 2.834 2.5-23 22.833zm32 0L92 135.333l19.5-19.5 2.5 2.667L94.667 138zm-70-69.667L22 65.833l19.667-19.666 2.666 2.5-19.666 19.666zm0 31.667L22 97.5l22.833-22.834 2.667 2.5L24.667 100z" fill="#9D9B9B"/></svg>