<svg width="120" height="120" fill="none" xmlns="http://www.w3.org/2000/svg"><path d="M97.508 60.358c4.251 0 7.877 1.503 10.877 4.507 3 3.004 4.5 6.63 4.5 10.88a15.79 15.79 0 01-1.564 6.901 32.154 32.154 0 01-3.837 6.136 202.44 202.44 0 00-5.229 7.435 31.385 31.385 0 00-3.899 8.162c-.036.171-.143.317-.32.438a.932.932 0 01-.536.183.932.932 0 01-.536-.183c-.177-.121-.284-.267-.32-.438a34.237 34.237 0 00-3.86-8.184 106.784 106.784 0 00-5.267-7.413 34.218 34.218 0 01-3.822-6.116c-1.053-2.167-1.58-4.488-1.58-6.966 0-4.227 1.503-7.84 4.509-10.84 3.005-3 6.633-4.502 10.884-4.502zM97.5 69a6.5 6.5 0 100 13 6.5 6.5 0 000-13z" fill="#9D9B9B"/><path d="M60 105c-6.225 0-12.075-1.181-17.55-3.542-5.475-2.362-10.238-5.567-14.288-9.615-4.05-4.049-7.256-8.81-9.618-14.283C16.18 72.088 15 66.24 15 60.016c0-6.222 1.181-12.073 3.544-17.551 2.362-5.478 5.569-10.243 9.619-14.295 4.05-4.053 8.812-7.26 14.287-9.624C47.925 16.182 53.775 15 60 15c10.787 0 20.24 3.35 28.36 10.051 8.12 6.701 13.279 15.107 15.474 25.218a15.926 15.926 0 00-2.243-.59 38.787 38.787 0 00-2.232-.352c-1.618-6.177-4.508-11.68-8.671-16.51-4.164-4.829-9.306-8.462-15.425-10.9v2.294c0 2.819-.983 5.234-2.947 7.245-1.965 2.012-4.356 3.018-7.175 3.018H54.88v10.264c0 1.416-.503 2.6-1.509 3.552-1.005.952-2.216 1.428-3.633 1.428H39.615V60h30.667c.936 0 1.759.248 2.468.745a5.74 5.74 0 011.728 1.931 25.963 25.963 0 00-2.61 6.265 25.826 25.826 0 00-.907 6.803c0 4.463 1.199 8.697 3.595 12.701a220.05 220.05 0 007.069 11.094 44.284 44.284 0 01-10.266 4.07C67.769 104.536 63.983 105 60 105zm-5.121-4.461v-9.892c-2.819 0-5.21-1.005-7.175-3.017-1.965-2.012-2.948-4.427-2.948-7.245v-5.141L20.25 50.737a95.63 95.63 0 00-.716 4.6A35.893 35.893 0 0019.23 60c0 10.327 3.377 19.353 10.129 27.078 6.753 7.724 15.26 12.21 25.519 13.461z" fill="#E60012"/></svg>