<svg width="130" height="130" fill="none" xmlns="http://www.w3.org/2000/svg"><path fill-rule="evenodd" clip-rule="evenodd" d="M34.582 113.75c-2.08 0-3.85-.73-5.31-2.188-1.46-1.46-2.189-3.231-2.189-5.312V45.416c0-2.081.73-3.851 2.188-5.311 1.46-1.46 3.23-2.188 5.311-2.188h60.835c2.08 0 3.851.729 5.311 2.188 1.459 1.46 2.188 3.23 2.188 5.31v60.835c0 2.081-.729 3.852-2.188 5.312-1.46 1.458-3.23 2.188-5.311 2.188H34.582zm48.173-55.996c-.385.386-.886.58-1.504.58-.617 0-1.118-.194-1.504-.58-.387-.387-.58-.888-.58-1.505V42.083h4.165V56.25c0 .617-.192 1.118-.576 1.505zm-32.5 0c-.385.386-.887.58-1.504.58s-1.118-.194-1.504-.58c-.387-.387-.58-.888-.58-1.505V42.083h4.165V56.25c0 .617-.192 1.118-.577 1.505z" fill="#E60012"/><path d="M46.583 34.583v3.334h4.165v-3.334c0-3.986 1.365-7.343 4.095-10.073 2.73-2.729 6.087-4.093 10.073-4.093 3.986 0 7.343 1.364 10.072 4.093 2.73 2.73 4.095 6.087 4.095 10.073v3.334h4.165v-3.334c0-5.132-1.772-9.47-5.316-13.015-3.545-3.545-7.884-5.318-13.016-5.318-5.133 0-9.471 1.773-13.016 5.318s-5.317 7.883-5.317 13.015z" fill="#9D9B9B"/></svg>