<svg width="112" height="112" fill="none" xmlns="http://www.w3.org/2000/svg"><path d="M39.898 20.083c1.23 0 2.357.23 3.393.684a9.48 9.48 0 012.82 1.886l17.553 17.003a4.5 4.5 0 011.019 1.517c.272.652.376 1.142.376 1.494 0 1.03-.3 1.8-.846 2.395-.502.545-1.268.883-2.458.883-.535 0-1.129-.115-1.79-.37a3.98 3.98 0 01-1.545-1.056l-.022-.024-.024-.023-8.606-8.337-.697-.674-.695.674L23.023 60.69l-5.418-5.249c-1.17-1.133-2.053-2.503-2.645-4.123-.608-1.662-.901-3.227-.901-4.702 0-1.577.248-2.968.724-4.188.49-1.253 1.098-2.2 1.803-2.882l17.44-16.893c.834-.809 1.73-1.44 2.684-1.902.901-.437 1.957-.668 3.188-.668z" stroke="#9D9B9B" stroke-width="2"/><path d="M54.813 94.083c-1.04 0-1.97-.341-2.787-1.025-.817-.682-1.225-1.643-1.225-2.884 0-.601.13-1.277.39-2.026.26-.75.65-1.344 1.17-1.786l15.157-15-2.006-1.985-15.157 15c-.52.515-1.115.9-1.783 1.158a5.55 5.55 0 01-2.007.386c-1.114 0-2.061-.386-2.841-1.158-.78-.772-1.17-1.71-1.17-2.812 0-.662.148-1.342.445-2.04.297-.7.669-1.27 1.115-1.71l15.157-15-2.006-1.986-15.157 15c-.446.441-1.022.81-1.728 1.103-.706.294-1.393.442-2.062.442-1.114 0-2.062-.386-2.842-1.159-.78-.772-1.17-1.71-1.17-2.812 0-.662.13-1.324.39-1.985a5.07 5.07 0 011.17-1.765l13.82-13.677-2.006-1.985-13.82 13.677c-.446.44-1.021.808-1.727 1.102-.706.295-1.394.442-2.062.442-1.189 0-2.155-.376-2.898-1.126-.743-.751-1.114-1.674-1.114-2.77 0-.638.148-1.306.445-2.005.298-.699.67-1.268 1.115-1.71l21.175-20.956 6.688 6.508c.817.809 1.708 1.379 2.674 1.71.966.33 2.044.496 3.232.496 2.08 0 3.771-.644 5.071-1.93 1.3-1.287 1.95-2.96 1.95-5.019a7.11 7.11 0 00-.668-3.035c-.446-.957-1.077-1.857-1.895-2.7l-9.362-9.265 5.907-5.845c.892-.883 2.006-1.581 3.344-2.096 1.337-.515 2.675-.772 4.012-.772 1.338 0 2.675.257 4.012.772 1.338.515 2.452 1.213 3.344 2.096l19.17 18.97c.817.81 1.485 1.839 2.005 3.089.52 1.25.78 2.61.78 4.08 0 1.47-.26 2.831-.78 4.081-.52 1.25-1.188 2.28-2.006 3.089l-37.67 37.279c-.446.441-1.021.809-1.727 1.103-.706.294-1.394.441-2.062.441z" fill="#EA3323"/></svg>