<svg width="27" height="26" fill="none" xmlns="http://www.w3.org/2000/svg"><path d="M5.456 19.57a16.3 16.3 0 013.832-1.926c1.309-.447 2.713-.67 4.212-.67 1.499 0 2.906.223 4.222.67a16.229 16.229 0 013.842 1.926c.866-1.049 1.497-2.143 1.895-3.283a10.93 10.93 0 00.596-3.62c0-2.977-1.015-5.48-3.045-7.51-2.03-2.03-4.534-3.046-7.51-3.046-2.977 0-5.48 1.015-7.51 3.045-2.03 2.03-3.046 4.534-3.046 7.51 0 1.274.202 2.481.607 3.621.405 1.14 1.04 2.234 1.905 3.283zm8.04-5.848c-1.229 0-2.264-.422-3.105-1.265-.84-.844-1.261-1.88-1.261-3.109s.421-2.263 1.265-3.104c.844-.841 1.88-1.262 3.109-1.262 1.228 0 2.263.422 3.104 1.266.841.843 1.262 1.88 1.262 3.108 0 1.23-.422 2.264-1.266 3.105-.843.84-1.88 1.261-3.108 1.261zm-.005 11.611c-1.754 0-3.403-.332-4.946-.997a12.717 12.717 0 01-4.026-2.718 12.763 12.763 0 01-2.699-4.03c-.658-1.538-.987-3.182-.987-4.932 0-1.75.333-3.394.998-4.933a12.714 12.714 0 012.717-4.018A12.934 12.934 0 018.578.997C10.115.334 11.76 0 13.51 0c1.75 0 3.394.333 4.933.998a12.803 12.803 0 014.018 2.707 12.792 12.792 0 012.708 4.022c.665 1.54.997 3.185.997 4.934s-.332 3.392-.997 4.93a12.938 12.938 0 01-2.708 4.027 12.694 12.694 0 01-4.024 2.718c-1.543.665-3.192.997-4.946.997z" fill="#fff"/></svg>