<svg width="29" height="25" fill="none" xmlns="http://www.w3.org/2000/svg"><path d="M14.256 25a12.305 12.305 0 00-3.333-1.891 10.505 10.505 0 00-3.718-.673c-1.275 0-2.508.212-3.697.636a14.74 14.74 0 00-3.355 1.704V6.453a12.117 12.117 0 013.371-1.485c1.193-.32 2.42-.48 3.68-.48 1.24 0 2.458.16 3.654.48 1.197.32 2.33.801 3.398 1.442v15.983a13.755 13.755 0 013.381-1.554 12.57 12.57 0 013.67-.54c.855 0 1.695.079 2.522.235.826.157 1.623.42 2.393.79V5.407c.377.135.746.288 1.105.46.36.17.704.366 1.031.587v18.323a14.739 14.739 0 00-3.354-1.704 10.933 10.933 0 00-3.697-.636 10.5 10.5 0 00-3.718.673A12.302 12.302 0 0014.256 25zm2.137-5.705V7.692L24.085 0v12.543l-7.692 6.752z" fill="#fff"/></svg>