<svg width="84" height="84" fill="none" xmlns="http://www.w3.org/2000/svg"><g clip-path="url(#clip0_46_3)"><path d="M82.245 21.65c-.966-3.637-3.813-6.502-7.427-7.474C68.268 12.409 42 12.409 42 12.409s-26.268 0-32.818 1.767c-3.614.972-6.46 3.837-7.427 7.474C0 28.244 0 42 0 42s0 13.756 1.755 20.35c.966 3.637 3.813 6.502 7.427 7.474C15.732 71.591 42 71.591 42 71.591s26.268 0 32.818-1.767c3.614-.972 6.46-3.837 7.427-7.474C84 55.756 84 42 84 42s0-13.756-1.755-20.35z" fill="red"/><path d="M33.409 54.49L55.364 42 33.409 29.51v24.98z" fill="#fff"/></g><defs><clipPath id="clip0_46_3"><path fill="#fff" d="M0 0h84v84H0z"/></clipPath></defs></svg>