<svg width="23" height="22" fill="none" xmlns="http://www.w3.org/2000/svg"><path d="M7.277.077c-1.17.055-1.97.242-2.668.516a5.383 5.383 0 00-1.946 1.273 5.388 5.388 0 00-1.265 1.95c-.271.7-.455 1.5-.506 2.67C.84 7.657.829 8.034.834 11.021c.006 2.987.02 3.362.076 4.535.056 1.17.242 1.97.517 2.668a5.39 5.39 0 001.272 1.946c.612.61 1.225.985 1.951 1.265.7.27 1.5.455 2.67.506 1.171.052 1.548.063 4.535.058 2.986-.006 3.362-.02 4.535-.075 1.173-.056 1.968-.243 2.667-.516a5.391 5.391 0 001.946-1.273 5.391 5.391 0 001.265-1.95c.27-.7.455-1.5.506-2.67.051-1.175.063-1.55.057-4.536-.005-2.987-.019-3.361-.074-4.534-.056-1.173-.242-1.97-.517-2.67a5.4 5.4 0 00-1.272-1.945 5.368 5.368 0 00-1.95-1.265c-.7-.27-1.5-.455-2.671-.506-1.17-.05-1.548-.063-4.535-.058C8.825.007 8.45.02 7.277.077zm.129 19.885c-1.073-.046-1.655-.224-2.043-.374a3.425 3.425 0 01-1.267-.82 3.388 3.388 0 01-.825-1.263c-.15-.388-.332-.97-.382-2.043-.055-1.159-.066-1.507-.073-4.444-.006-2.936.005-3.284.056-4.444.046-1.071.225-1.654.374-2.042.198-.515.436-.88.82-1.267.384-.386.75-.624 1.264-.825.387-.151.97-.331 2.041-.382 1.16-.055 1.508-.066 4.444-.073 2.937-.006 3.285.005 4.446.056 1.071.047 1.654.224 2.042.374.514.198.88.436 1.266.82.387.385.625.75.826 1.264.151.387.331.968.382 2.041.055 1.16.068 1.508.073 4.444.005 2.936-.005 3.285-.056 4.444-.047 1.073-.225 1.655-.374 2.044-.198.513-.437.88-.82 1.266-.385.386-.75.624-1.264.825-.387.151-.97.332-2.04.383-1.161.054-1.509.066-4.446.072-2.937.006-3.284-.006-4.444-.056m8.967-14.841a1.32 1.32 0 102.64-.004 1.32 1.32 0 00-2.64.004zM6.185 11.01a5.648 5.648 0 1011.296-.022 5.648 5.648 0 00-11.296.022zm1.981-.004a3.667 3.667 0 117.334-.015 3.667 3.667 0 01-7.334.015z" fill="#fff"/></svg>