<svg width="16" height="15" fill="none" xmlns="http://www.w3.org/2000/svg"><g opacity=".85"><mask id="a" style="mask-type:alpha" maskUnits="userSpaceOnUse" x="0" y="0" width="16" height="15"><path fill="#D9D9D9" d="M.667 0h15v15h-15z"/></mask><g mask="url(#a)"><path d="M4.042 12.75c-.31 0-.574-.11-.795-.33-.22-.22-.33-.485-.33-.794v-8.25c0-.31.11-.575.33-.795.22-.22.486-.33.795-.33h4.125v1.124H4.042v8.25h8.25V7.5h1.125v4.126c0 .309-.11.574-.33.794-.22.22-.486.33-.795.33h-8.25zm2.672-3l-.797-.796 5.578-5.579H9.667V2.25h3.75V6h-1.125V4.172L6.714 9.75z" fill="#fff"/></g></g></svg>