<svg width="86" height="15" fill="none" xmlns="http://www.w3.org/2000/svg"><g clip-path="url(#clip0_2025_161)" fill="#fff"><path d="M50.21 3.822a5.538 5.538 0 105.539 5.539 5.54 5.54 0 00-5.54-5.54zm-.004 7.213a1.673 1.673 0 010-3.346 1.673 1.673 0 010 3.346zM15.587 3.773c1.033 0 1.87-.844 1.87-1.883 0-1.04-.837-1.89-1.87-1.89-1.033 0-1.87.844-1.87 1.883 0 1.04.837 1.883 1.87 1.883v.007zm.012.439c-1.059 0-1.922.821-1.961 1.848v6.907c0 1.062.88 1.922 1.964 1.922 1.085 0 1.965-.86 1.965-1.922V6.06c-.04-1.027-.903-1.848-1.965-1.848H15.6zm14.76-.442c1.032 0 1.87-.844 1.87-1.883 0-1.04-.837-1.884-1.87-1.884a1.88 1.88 0 00-1.874 1.884c0 1.039.838 1.883 1.874 1.883zm.013.442c-1.059 0-1.922.821-1.965 1.848v6.907c0 1.062.88 1.922 1.965 1.922s1.964-.86 1.964-1.922V6.06c-.039-1.027-.902-1.848-1.96-1.848h-.004zm11.868-.384c-1.095 0-1.98.86-1.98 1.922v1.574c0 .424-.232.766-.652.766-.42 0-.649-.342-.649-.766V5.77h-.003v-.02c0-1.062-.886-1.922-1.981-1.922-1.095 0-1.98.86-1.98 1.922v7.26c0 1.061.885 1.921 1.98 1.921s1.98-.86 1.98-1.922v-1.042c.004-.424.232-.766.656-.766.423 0 .651.342.651.766v1.042c0 1.062.89 1.922 1.984 1.922 1.095 0 1.981-.86 1.981-1.922V5.75c0-1.062-.886-1.922-1.98-1.922h-.007zm30.04 3.659h-2.887c-.12 0-.218-.088-.218-.208 0-.121.097-.209.218-.209h3.313a1.62 1.62 0 100-3.238h-3.069l-.459.022c-1.854 0-3.356 1.538-3.356 3.434 0 1.896 1.502 3.434 3.356 3.434l.267.01h3.268a.21.21 0 01.209.212.21.21 0 01-.209.212h-5.568c-.902 0-1.632.733-1.632 1.635 0 .903.73 1.636 1.632 1.636h4.877l.26-.023c1.91 0 3.396-1.548 3.38-3.457-.023-2.232-1.47-3.457-3.38-3.457l-.002-.003zm11.907 3.669h-4.58a.208.208 0 01-.209-.209c0-.114.095-.212.209-.212h3.271c.892 0 1.619-.726 1.619-1.619s-.727-1.62-1.62-1.62H79.77a.214.214 0 01-.218-.208c0-.117.095-.208.209-.208h2.557a1.62 1.62 0 001.597-1.62 1.62 1.62 0 00-1.597-1.619h-2.293s-.584.004-.828.043c-.244.039-2.746.407-2.987 3.362-.066.795.397 1.684.397 1.684s.052.079-.006.17c-.06.091-.499.791-.492 1.89.006 1.097.856 2.886 2.586 3.31.597.143 1.714.136 1.714.136h3.783c.902 0 1.632-.733 1.632-1.635 0-.903-.73-1.636-1.632-1.636l-.004-.01zM65.226 5.783v-.02c0-1.068-.886-1.935-1.98-1.935-1.095 0-1.982.867-1.982 1.935v4.565c.004.375-.182.68-.553.68-.372 0-.56-.302-.56-.68V5.763c0-1.068-.887-1.935-1.982-1.935-1.094 0-1.98.867-1.98 1.935v4.685c0 2.516 2.023 4.552 4.518 4.552 2.496 0 4.52-2.036 4.52-4.552V5.783zm-37.422 6.031L25.647 8.63s-.17-.172-.023-.322l1.303-1.662a1.46 1.46 0 00-.107-1.964 1.537 1.537 0 00-2.114-.036l-.007.003-.023.02-.006.006-1.952 1.789s-.488.404-.648-.326v.499-.87c0-1.06-.88-1.92-1.965-1.92s-1.961.86-1.964 1.92v7.21c0 1.062.88 1.922 1.964 1.922 1.085 0 1.965-.86 1.965-1.922V11.41c.013-.15.091-.375.287-.333.166.04.42.427.42.427l1.665 2.369c.023.039.049.078.075.117a2.013 2.013 0 002.766.47 1.914 1.914 0 00.521-2.646zM9.715 3.747c-.954 0-1.762.325-2.371.938-.108.14-.336.384-.564.72-.166.244-.218.234-.25.234-.033 0-.095.043-.271-.237-.193-.31-.567-.717-.567-.717-.57-.577-1.359-.932-2.366-.932C1.463 3.75.033 5.125.033 6.82L0 7.425v5.552c0 1.062.88 1.922 1.965 1.922s1.964-.86 1.964-1.922V8.204c0-.183.098-.359.31-.359.211 0 .312.176.312.359v4.773c0 1.062.88 1.922 1.965 1.922s1.965-.86 1.965-1.922l-.004-4.764c0-.205.101-.368.31-.368.208 0 .32.163.32.365v4.767c0 1.062.879 1.922 1.964 1.922s1.964-.86 1.964-1.922l.007-5.555-.033-.606c0-1.695-1.43-3.07-3.294-3.07z"/></g><defs><clipPath id="clip0_2025_161"><path fill="#fff" d="M0 0h85.82v15H0z"/></clipPath></defs></svg>