<svg width="181" height="45" fill="none" xmlns="http://www.w3.org/2000/svg"><g clip-path="url(#clip0_206_967)"><path d="M180.667.979h-180v43.68h180V.98z" fill="#231815"/><path d="M117.534 22.96l-1.496.012v-4.671l3.875-.01v-2.204h-3.875l-.009-4.01 1.487.012s1.719-.105 2.192 2.21h1.583v-4.34l-9.466-.009.022 2.14h1.137l.009 10.895-1.168.014.022 2.467h9.706v-5.158h-1.679s-.131 2.804-2.34 2.651zm-16.317-10.893l-.013 10.914-1.146.022v2.454h9.706v-5.07l-1.772-.022s-.03-.008-.035.053c-.205 2.773-1.915 2.567-1.915 2.567l-2.048.014V12.063l1.068-.013.008-2.087-5.021-.013.009 2.113h1.159v.004zm-20.979.013s.954-.017.954.035c0 1.535.066 7.655-.066 8.22-.135.55-.433 2.75-3.088 2.75-2.786 0-2.817-3.236-2.817-3.236v-7.764l1.041.008V9.99h-4.86v2.1h1.085s-.066 7.261.04 8.167c.472 5.852 5.432 5.704 5.432 5.704h.18c5.743.013 5.822-5.81 5.822-5.81l-.013-8.052h.9v-2.11H80.23v2.095l.008-.004zm50.785 10.918h-5.507v2.471h5.507v-2.471zM45.074 10.38c-.289-.053-1.5-.342-3.066-.368-2.494-.048-5.656-.027-5.656-.027v2.2l1.203.014.017 10.905-1.216.009.009 2.344s4.986.092 7.414-.127c0 0 7.602-.774 6.854-8.66-.498-5.29-5.555-6.29-5.555-6.29h-.004zm2.664 7.247c-.394 6.36-7.205 5.45-7.205 5.45l.01-10.874c.52-.061 1.005.035 1.465.048 4.181.158 5.852 3.347 5.73 5.376zm21.665-.07a8.243 8.243 0 00-8.245-8.245h-.035a8.248 8.248 0 00-8.215 8.245c0 4.54 3.692 8.25 8.25 8.25s8.245-3.696 8.245-8.25zm-8.25 5.582a5.58 5.58 0 01-5.58-5.582 5.57 5.57 0 015.546-5.582h.035a5.583 5.583 0 010 11.163zm26.329-.245h-1.129l.01 2.563h5.305l1.05-.035s5.122.271 4.847-4.69c-.272-2.764-2.446-3.62-2.446-3.62v-.106s1.75-.827 1.702-3.254c-.04-2.354-1.575-3.565-3.11-3.75-.403-.047-1.255-.034-2.3-.043-2.223-.017-5.066-.009-5.066-.009v2.1h1.141v10.84l-.004.004zm7.051-2.249c0 1.295-1.115 2.017-1.561 2.122-.643.144-.984.122-.984.122l-.32-.013-1.18-.008v-4.585s1.521-.026 1.539.014c.017.034 2.506-.08 2.506 2.348zm-3.123-8.582c.407 0 .455 0 .45-.009.018.035 1.987-.153 1.987 1.908 0 2.06-1.684 2.174-1.684 2.174h-1.68l-.009-4.082.936.01zm52.731 8.67c-.271-2.765-2.454-3.622-2.454-3.622l.013-.105s1.741-.827 1.702-3.254c-.044-2.354-1.579-3.565-3.119-3.75-.402-.047-1.251-.034-2.296-.043-2.227-.017-5.07-.009-5.07-.009v2.1h1.146v10.84h-1.129l.018 2.563h5.293l1.058-.035s5.114.27 4.851-4.69l-.013.005zm-7.095-8.679l.936.01c.407 0 .455 0 .447-.01.021.035 1.99-.153 1.99 1.908 0 2.06-1.689 2.174-1.689 2.174h-1.675l-.009-4.082zm2.502 10.713c-.647.144-.984.122-.984.122l-.332-.013-1.173-.008.009-4.585s1.518-.026 1.536.014c.017.034 2.502-.08 2.502 2.348 0 1.295-1.107 2.017-1.558 2.122zm-28.122 9.335c-.109-.079-.682-.604-1.666-1.347-.455-.342-.188-.617-.097-.657.6-.27 1.47.049 1.47.049l.713-1.628c-1.36-.752-3.088-.595-3.998.21-.91.805-.923 2.104-.485 2.774.669 1.014 2.191 1.771 2.44 2.152.232.35 0 .612-.131.664-1.168.486-2.156-.126-2.156-.126s-.748 1.566-.726 1.579c2.493 1.408 4.938.284 5.305-1.142.407-1.575-.551-2.45-.664-2.528h-.005zm-7.724-1.72l.044 3.316s.039.805-.919.678c-.393-.057-.914-.709-.822-2.366.079-1.488.136-1.628.136-1.628h-2.275s-1.618 5.214 1.304 5.997c1.386.372 2.545-.651 2.545-.651l.035.026v.67h2.437l-.07-6.055-2.419.009.004.004zm-15.362.354l-.049-.022v-2.45h-2.34v8.172h2.34V33.36s-.026-.477.07-.63c.569-.884 1.422.022 1.461.669.118 1.999-.31 3.04-.31 3.04h2.287s1.06-3.679-.026-5.192c-1.408-1.969-3.433-.503-3.433-.503v-.009zm-7.135 5.696h2.314v-5.765H81.2l.005 5.765zm-2.672-4.322l2.261-2.59-1.81-1.631-2.35 2.852-.03-.005V28.26h-2.415l-.004 8.167h2.427l-.004-2.917.048-.01 2.353 3.12 1.864-1.614-2.34-2.861v-.035zM66.5 28.26l-.67 2.958h-.026l-.608-2.957h-2.848l-1.155 8.167h2.616l.302-3.347.052.009.7 3.337h2.004l.695-3.346h.048l.337 3.346h2.638l-1.203-8.166h-2.883zm5.743-.458a1.3 1.3 0 100 2.598 1.3 1.3 0 000-2.598zm10.077-.022a1.3 1.3 0 10.001 2.598 1.3 1.3 0 000-2.599zm-8.91 2.882h-2.34v5.765h2.34v-5.765z" fill="#EEA300"/><path d="M95.82 30.084h-.123a3.172 3.172 0 00-3.049 3.167c0 1.706 1.418 3.172 3.172 3.172a3.17 3.17 0 100-6.343v.005zm0 4.23c-.556 0-1.01-.476-1.01-1.058 0-.543.389-.989.892-1.05.035-.009.078-.009.122-.009.56 0 1.01.473 1.01 1.059s-.45 1.058-1.01 1.058h-.004zm20.204-4.317c-.057 0-.114.004-.171.009-1.124.105-2.931.936-2.926 3.302 0 2.712 3.171 4.208 6.281 2.485.009-.004-.682-1.64-.682-1.64s-1.229.735-2.485.385l-.083-.035 3.346-2.087s-.463-2.484-3.28-2.415v-.004zm-.901 3.014s-.04.017-.04 0c-.083-.683.46-1.067.46-1.067.109-.057.214-.101.31-.132.634-.197.927.18.927.18l-1.653 1.019h-.004z" fill="#EEA300"/></g><defs><clipPath id="clip0_206_967"><path fill="#fff" transform="translate(.667 .979)" d="M0 0h180v43.681H0z"/></clipPath></defs></svg>