<svg width="172" height="31" fill="none" xmlns="http://www.w3.org/2000/svg"><g clip-path="url(#clip0_69_128)" fill="#E60012"><path d="M100.419 8.143c-6.112 0-11.077 4.96-11.077 11.078 0 6.118 4.959 11.077 11.077 11.077 6.119 0 11.077-4.959 11.077-11.077 0-6.119-4.958-11.078-11.077-11.078zm-.006 14.427a3.347 3.347 0 010-6.692 3.345 3.345 0 010 6.692zM31.173 8.046c2.065 0 3.74-1.688 3.74-3.767 0-2.078-1.675-3.779-3.74-3.779-2.066 0-3.74 1.688-3.74 3.766 0 2.079 1.674 3.767 3.74 3.767v.013zm.026.879c-2.118 0-3.844 1.642-3.923 3.695v13.814c0 2.124 1.76 3.844 3.93 3.844s3.929-1.72 3.929-3.844V12.62c-.078-2.053-1.805-3.695-3.93-3.695H31.2zm29.518-.885c2.065 0 3.74-1.689 3.74-3.767 0-2.079-1.675-3.766-3.74-3.766-2.066 0-3.747 1.687-3.747 3.766 0 2.078 1.674 3.766 3.747 3.766zm.026.885c-2.118 0-3.845 1.642-3.93 3.695v13.814c0 2.124 1.76 3.844 3.93 3.844s3.929-1.72 3.929-3.844V12.62c-.078-2.053-1.805-3.695-3.923-3.695h-.006zm23.738-.769c-2.19 0-3.962 1.72-3.962 3.845v3.147c0 .847-.462 1.531-1.303 1.531-.84 0-1.297-.684-1.297-1.53V12.04h-.006V12c0-2.123-1.773-3.844-3.962-3.844-2.19 0-3.962 1.72-3.962 3.845v14.518c0 2.124 1.773 3.844 3.962 3.844 2.19 0 3.962-1.72 3.962-3.844v-2.085c.006-.848.462-1.532 1.31-1.532.847 0 1.303.684 1.303 1.531v2.086c0 2.124 1.779 3.844 3.968 3.844 2.19 0 3.962-1.72 3.962-3.844V12c0-2.123-1.773-3.844-3.962-3.844h-.013zm60.078 7.318h-5.773c-.241 0-.437-.176-.437-.417s.196-.417.437-.417h6.627a3.238 3.238 0 100-6.477h-6.138l-.919.046c-3.708 0-6.712 3.075-6.712 6.867 0 3.793 3.004 6.868 6.712 6.868l.534.02h6.536c.234 0 .417.189.417.424a.421.421 0 01-.417.423H134.29a3.268 3.268 0 00-3.265 3.271 3.268 3.268 0 003.265 3.271h9.755l.521-.045c3.818 0 6.79-3.096 6.757-6.914-.046-4.463-2.939-6.913-6.757-6.913l-.007-.007zm23.817 7.337h-9.162a.416.416 0 01-.417-.417c0-.228.189-.424.417-.424h6.542a3.243 3.243 0 003.239-3.238 3.243 3.243 0 00-3.239-3.239h-6.216a.429.429 0 01-.437-.417c0-.234.189-.417.417-.417h5.116a3.241 3.241 0 003.192-3.238 3.241 3.241 0 00-3.192-3.239h-4.588s-1.166.007-1.655.085c-.489.078-5.493.815-5.975 6.725-.13 1.59.795 3.368.795 3.368s.104.157-.013.34c-.117.182-.997 1.583-.984 3.779.013 2.196 1.714 5.773 5.174 6.62 1.192.287 3.427.274 3.427.274h7.565a3.268 3.268 0 003.265-3.271 3.268 3.268 0 00-3.265-3.271l-.006-.02zm-37.924-10.745v-.04c0-2.136-1.773-3.87-3.962-3.87-2.19 0-3.962 1.734-3.962 3.87v9.131c.007.75-.365 1.362-1.108 1.362-.743 0-1.12-.606-1.12-1.362v-9.13c0-2.136-1.773-3.87-3.962-3.87-2.19 0-3.962 1.734-3.962 3.87v9.371c0 5.03 4.046 9.103 9.038 9.103 4.991 0 9.038-4.073 9.038-9.103v-9.331zM55.608 24.127l-4.314-6.366s-.339-.345-.045-.645l2.606-3.323a2.919 2.919 0 00-.215-3.93 3.074 3.074 0 00-4.229-.071l-.013.006c-.013.013-.033.027-.046.04l-.012.013-3.904 3.577s-.977.808-1.296-.652v.997-1.74c0-2.117-1.76-3.838-3.93-3.838s-3.922 1.72-3.929 3.838v14.42c0 2.125 1.76 3.845 3.93 3.845s3.929-1.72 3.929-3.845V23.32c.026-.3.182-.75.573-.664.332.078.84.853.84.853l3.33 4.737c.046.079.098.157.15.235 1.264 1.753 3.74 2.176 5.532.938a3.828 3.828 0 001.043-5.29zM19.43 7.993c-1.908 0-3.524.652-4.743 1.877-.215.28-.67.769-1.127 1.44-.332.489-.437.47-.502.47s-.189.084-.54-.476c-.385-.62-1.134-1.434-1.134-1.434-1.14-1.153-2.718-1.863-4.731-1.863C2.926 8 .065 10.75.065 14.138L0 15.35v11.103c0 2.125 1.76 3.845 3.93 3.845 2.169 0 3.928-1.72 3.928-3.845v-9.546c0-.364.196-.716.62-.716.423 0 .625.352.625.716v9.546c0 2.125 1.76 3.845 3.93 3.845 2.169 0 3.928-1.72 3.928-3.845l-.006-9.526c0-.41.202-.736.619-.736s.638.326.638.73v9.532c0 2.125 1.76 3.845 3.93 3.845s3.929-1.72 3.929-3.845l.013-11.11-.065-1.211c0-3.389-2.86-6.139-6.588-6.139z"/></g><defs><clipPath id="clip0_69_128"><path fill="#fff" transform="translate(0 .5)" d="M0 0h171.64v30H0z"/></clipPath></defs></svg>