<svg width="1440" height="742" viewBox="0 0 1440 742" fill="none" xmlns="http://www.w3.org/2000/svg">
<mask id="mask0_104_228" style="mask-type:luminance" maskUnits="userSpaceOnUse" x="-108" y="-54" width="1637" height="796">
<path d="M1425.68 -53.3004L-107.954 314.373L-5.57456 741.419L1528.06 373.745L1425.68 -53.3004Z" fill="white"/>
</mask>
<g mask="url(#mask0_104_228)">
<path d="M141.099 521.301C376.764 457.782 606.587 464.194 845.268 414.885C1010.4 380.773 1177.22 325.088 1296.31 264.331C1384.14 219.519 1438.14 174.121 1471.88 131.333C1471.78 137.285 1471.08 143.325 1469.77 149.418C1433.6 308.981 991.478 467.873 511.556 554.916C222.264 603.172 -3.55687 737.403 -90.518 786.956C-104.595 728.664 -113.659 673.813 -125.721 640.12C-56.3862 595.411 22.9208 553.166 141.097 521.302L141.099 521.301Z" stroke="#C4A552"/>
<path d="M241.543 317.103C414.582 288.537 555.568 305.6 695.449 298.594C858.711 290.407 1085.56 257.974 1299.23 189.067C1369.1 166.532 1428.84 141.443 1470.01 117.981C1474.01 121.963 1477.2 126.229 1479.54 130.743C1452.48 159.847 1409.89 190.817 1346.06 221.93C1122.68 330.829 734.498 382.331 499.353 388.056C304.859 385.234 82.5552 422.576 -162.006 529.906C-160.432 529.423 -175.308 440.244 -175.43 436.637C-32.0336 384.065 79.537 343.847 241.543 317.103Z" stroke="#C4A552"/>
</g>
</svg>
