<svg width="1440" height="670" viewBox="0 0 1440 670" fill="none" xmlns="http://www.w3.org/2000/svg">
<mask id="mask0_93_252" style="mask-type:luminance" maskUnits="userSpaceOnUse" x="-57" y="0" width="1600" height="670">
<path d="M9.57031 0.703125L1542.45 235.27L1476.02 669.364L-56.8565 434.797L9.57031 0.703125Z" fill="white"/>
</mask>
<g mask="url(#mask0_93_252)">
<path d="M1314.71 462.729C1078.61 419.692 853.789 445.8 615.856 417.174C451.243 397.373 283.257 356.23 161.663 305.94C71.9934 268.847 15.4416 228.268 -21.04 188.55C-20.4757 194.47 -19.3054 200.424 -17.5359 206.38C30.6125 362.189 476.718 482.494 954.175 527.997C1241.64 551.231 1473.72 665.538 1562.92 707.427C1572.09 648.163 1576.61 592.758 1585.76 558.166C1514.23 519.59 1433.11 484.323 1314.72 462.729L1314.71 462.729Z" stroke="#C4A552"/>
<path d="M1200 267.981C1028.07 254.381 891.202 283.473 753.5 288.5C592.78 294.357 367.79 281.523 152.816 231.233C82.5276 214.785 21.9621 194.925 -20.2701 175.091C-23.8784 179.401 -26.6627 183.923 -28.5998 188.619C0.241294 215.283 44.4676 242.471 109.515 267.981C337.187 357.267 721.872 375.247 952.874 360.77C1143.34 341.268 1364.26 359.381 1612.58 445.287C1610.99 444.941 1618.49 354.849 1618.32 351.246C1473.55 311.193 1360.96 280.714 1200 267.981Z" stroke="#C4A552"/>
</g>
</svg>
