<svg width="1438" height="887" viewBox="0 0 1438 887" fill="none" xmlns="http://www.w3.org/2000/svg">
<mask id="mask0_109_210" style="mask-type:luminance" maskUnits="userSpaceOnUse" x="-162" y="-63" width="1688" height="950">
<path d="M1381.37 -62.4099L-161.089 471.605L-17.4188 886.585L1525.04 352.57L1381.37 -62.4099Z" fill="white"/>
</mask>
<g mask="url(#mask0_109_210)">
<path d="M113.429 650.952C349.816 561.888 586.506 543.241 827.273 468.028C993.847 415.995 1160.21 342.249 1277.09 268.643C1363.28 214.356 1414.66 163.17 1445.47 116.797C1445.91 122.747 1445.73 128.85 1444.93 135.073C1422.16 298.238 982.26 504.971 497.051 644.126C204.193 723.804 -15.7082 882.358 -100.582 941.282C-120.299 884.648 -134.554 830.901 -149.982 798.594C-82.7805 746.425 -5.11111 695.628 113.427 650.953L113.429 650.952Z" stroke="#C4A552"/>
<path d="M198.217 436.243C373.416 388.882 519.797 390.544 662.874 368.311C829.865 342.35 1060 285.266 1273.31 193.221C1343.05 163.121 1402.16 131.576 1442.35 103.677C1446.82 107.214 1450.48 111.124 1453.29 115.373C1428.12 147.364 1387.14 182.909 1324.38 220.911C1104.7 353.921 710.539 447.615 469.475 478.951C269.406 497.329 44.3852 558.817 -197.194 692.569C-195.621 691.915 -218.941 604.548 -219.392 600.961C-76.8098 532.875 34.1888 480.585 198.217 436.243Z" stroke="#C4A552"/>
</g>
</svg>
